<?xml version="1.0" encoding="utf-8"?>
<svg xmlns="http://www.w3.org/2000/svg" width="1189mm" height="841mm" viewBox="0 0 1000000 707317"><defs><style>.C1 {stroke: #ffffff; stroke-width: 151; stroke-opacity: 1.000; fill: none; fill-opacity: 1.000;}</style><style>.C2 {stroke: #ffffff; stroke-width: 210; stroke-opacity: 1.000; fill: none; fill-opacity: 1.000;}</style><style>.C3 {stroke: none; stroke-width: none; stroke-opacity: 1.000; fill: #ffffff; fill-opacity: 1.000;}</style><style>.C4 {stroke: #ffffff; stroke-width: 42; stroke-opacity: 1.000; fill: none; fill-opacity: 1.000;}</style></defs><rect fill="#212830" x="0" y="0" width="1000000" height="707317" fill-opacity="1.0" /><g stroke-linecap="round" stroke-linejoin="round" fill-rule="evenodd"><path d="M 273475 102618 l 309504 0" class="C1" /><path d="M 260018 116074 l 0 309504" class="C1" /><path d="M 273475 439035 l 309504 0" class="C1" /><path d="M 596435 116074 l 0 309504" class="C1" /><path d="M 276839 422214 l 0 10681 m 0 2136 l 0 2136" class="C1" /><path d="M 276839 396983 l 0 -10681 m 0 -2136 l 0 -2136" class="C1" /><path d="M 272634 396983 l 0 -16821" class="C1" /><path d="M 281044 396983 l 0 -16821" class="C1" /><path d="M 314290 413804 l 0 10681 m 0 2136 l 0 2136" class="C1" /><path d="M 318495 413804 l 0 16821" class="C1" /><path d="M 310085 413804 l 0 16821" class="C1" /><path d="M 260018 102618 l 7553 7553 m 1511 1511 l 1511 1511 m 1511 1511 l 7553 7553 m 1511 1511 l 1511 1511 m 1511 1511 l 7553 7553 m 1511 1511 l 1511 1511 m 1511 1511 l 7553 7553 m 1511 1511 l 1511 1511 m 1511 1511 l 7553 7553 m 1511 1511 l 1511 1511 m 1511 1511 l 7553 7553 m 1511 1511 l 1511 1511 m 1511 1511 l 7553 7553 m 1511 1511 l 1511 1511 m 1511 1511 l 7553 7553 m 1511 1511 l 1511 1511 m 1511 1511 l 7553 7553 m 1511 1511 l 1511 1511 m 1511 1511 l 7553 7553 m 1511 1511 l 1511 1511 m 1511 1511 l 7553 7553 m 1511 1511 l 1511 1511 m 1511 1511 l 7553 7553 m 1511 1511 l 1511 1511 m 1511 1511 l 7553 7553 m 1511 1511 l 1511 1511 m 1511 1511 l 7553 7553 m 1511 1511 l 1511 1511 m 1511 1511 l 7553 7553 m 1511 1511 l 1511 1511 m 1511 1511 l 7553 7553 m 1511 1511 l 1511 1511 m 1511 1511 l 7553 7553 m 1511 1511 l 1511 1511 m 1511 1511 l 7553 7553 m 1511 1511 l 1511 1511 m 1511 1511 l 7553 7553 m 1511 1511 l 1511 1511 m 1511 1511 l 7553 7553 m 1511 1511 l 1511 1511 m 1511 1511 l 7553 7553 m 1511 1511 l 1511 1511 m 1511 1511 l 7553 7553 m 1511 1511 l 1511 1511 m 1511 1511 l 7553 7553 m 1511 1511 l 1511 1511 m 1511 1511 l 7553 7553 m 1511 1511 l 1511 1511 m 1511 1511 l 7553 7553 m 1511 1511 l 1511 1511 m 1511 1511 l 7553 7553 m 1511 1511 l 1511 1511 m 1511 1511 l 7553 7553 m 1511 1511 l 1511 1511 m 1511 1511 l 7553 7553 m 1511 1511 l 1074 1074" class="C1" /><path d="M 344122 396983 l 0 -10681 m 0 -2136 l 0 -2136" class="C1" /><path d="M 339917 396983 l 0 -16821" class="C1" /><path d="M 348327 396983 l 0 -16821" class="C1" /><path d="M 411406 396983 l 0 -10681 m 0 -2136 l 0 -2136" class="C1" /><path d="M 407200 396983 l 0 -16821" class="C1" /><path d="M 415611 396983 l 0 -16821" class="C1" /><path d="M 478689 396983 l 0 -10681 m 0 -2136 l 0 -2136" class="C1" /><path d="M 474484 396983 l 0 -16821" class="C1" /><path d="M 482894 396983 l 0 -16821" class="C1" /><path d="M 545972 396983 l 0 -10681 m 0 -2136 l 0 -2136" class="C1" /><path d="M 541767 396983 l 0 -16821" class="C1" /><path d="M 550178 396983 l 0 -16821" class="C1" /><path d="M 344122 329699 l 0 -10681 m 0 -2136 l 0 -2136" class="C1" /><path d="M 339917 329699 l 0 -16821" class="C1" /><path d="M 348327 329699 l 0 -16821" class="C1" /><path d="M 411406 329699 l 0 -10681 m 0 -2136 l 0 -2136" class="C1" /><path d="M 407200 329699 l 0 -16821" class="C1" /><path d="M 415611 329699 l 0 -16821" class="C1" /><path d="M 478689 329699 l 0 -10681 m 0 -2136 l 0 -2136" class="C1" /><path d="M 474484 329699 l 0 -16821" class="C1" /><path d="M 482894 329699 l 0 -16821" class="C1" /><path d="M 545972 329699 l 0 -10681 m 0 -2136 l 0 -2136" class="C1" /><path d="M 541767 329699 l 0 -16821" class="C1" /><path d="M 550178 329699 l 0 -16821" class="C1" /><path d="M 344122 262416 l 0 -10681 m 0 -2136 l 0 -2136" class="C1" /><path d="M 339917 262416 l 0 -16821" class="C1" /><path d="M 348327 262416 l 0 -16821" class="C1" /><path d="M 411406 262416 l 0 -10681 m 0 -2136 l 0 -2136" class="C1" /><path d="M 407200 262416 l 0 -16821" class="C1" /><path d="M 415611 262416 l 0 -16821" class="C1" /><path d="M 478689 262416 l 0 -10681 m 0 -2136 l 0 -2136" class="C1" /><path d="M 474484 262416 l 0 -16821" class="C1" /><path d="M 482894 262416 l 0 -16821" class="C1" /><path d="M 545972 262416 l 0 -10681 m 0 -2136 l 0 -2136" class="C1" /><path d="M 541767 262416 l 0 -16821" class="C1" /><path d="M 550178 262416 l 0 -16821" class="C1" /><path d="M 344122 195132 l 0 -10681 m 0 -2136 l 0 -2136" class="C1" /><path d="M 339917 195132 l 0 -16821" class="C1" /><path d="M 348327 195132 l 0 -16821" class="C1" /><path d="M 411406 195132 l 0 -10681 m 0 -2136 l 0 -2136" class="C1" /><path d="M 407200 195132 l 0 -16821" class="C1" /><path d="M 415611 195132 l 0 -16821" class="C1" /><path d="M 478689 195132 l 0 -10681 m 0 -2136 l 0 -2136" class="C1" /><path d="M 474484 195132 l 0 -16821" class="C1" /><path d="M 482894 195132 l 0 -16821" class="C1" /><path d="M 545972 195132 l 0 -10681 m 0 -2136 l 0 -2136" class="C1" /><path d="M 541767 195132 l 0 -16821" class="C1" /><path d="M 550178 195132 l 0 -16821" class="C1" /><path d="M 344122 127849 l 0 -10681 m 0 -2136 l 0 -2136" class="C1" /><path d="M 339917 127849 l 0 -16821" class="C1" /><path d="M 348327 127849 l 0 -16821" class="C1" /><path d="M 411406 127849 l 0 -10681 m 0 -2136 l 0 -2136" class="C1" /><path d="M 407200 127849 l 0 -16821" class="C1" /><path d="M 415611 127849 l 0 -16821" class="C1" /><path d="M 478689 127849 l 0 -10681 m 0 -2136 l 0 -2136" class="C1" /><path d="M 474484 127849 l 0 -16821" class="C1" /><path d="M 482894 127849 l 0 -16821" class="C1" /><path d="M 545972 127849 l 0 -10681 m 0 -2136 l 0 -2136" class="C1" /><path d="M 541767 127849 l 0 -16821" class="C1" /><path d="M 550178 127849 l 0 -16821" class="C1" /><path d="M 276839 329699 l 0 -10681 m 0 -2136 l 0 -2136" class="C1" /><path d="M 272634 329699 l 0 -16821" class="C1" /><path d="M 281044 329699 l 0 -16821" class="C1" /><path d="M 276839 262416 l 0 -10681 m 0 -2136 l 0 -2136" class="C1" /><path d="M 272634 262416 l 0 -16821" class="C1" /><path d="M 281044 262416 l 0 -16821" class="C1" /><path d="M 276839 195132 l 0 -10681 m 0 -2136 l 0 -2136" class="C1" /><path d="M 272634 195132 l 0 -16821" class="C1" /><path d="M 281044 195132 l 0 -16821" class="C1" /><path d="M 276839 127849 l 0 -10681 m 0 -2136 l 0 -2136" class="C1" /><path d="M 272634 127849 l 0 -16821" class="C1" /><path d="M 281044 127849 l 0 -16821" class="C1" /><path d="M 381573 413804 l 0 10681 m 0 2136 l 0 2136" class="C1" /><path d="M 385779 413804 l 0 16821" class="C1" /><path d="M 377368 413804 l 0 16821" class="C1" /><path d="M 448857 413804 l 0 10681 m 0 2136 l 0 2136" class="C1" /><path d="M 453062 413804 l 0 16821" class="C1" /><path d="M 444652 413804 l 0 16821" class="C1" /><path d="M 516140 413804 l 0 10681 m 0 2136 l 0 2136" class="C1" /><path d="M 520346 413804 l 0 16821" class="C1" /><path d="M 511935 413804 l 0 16821" class="C1" /><path d="M 583424 413804 l 0 10681 m 0 2136 l 0 2136" class="C1" /><path d="M 587629 413804 l 0 16821" class="C1" /><path d="M 579219 413804 l 0 16821" class="C1" /><path d="M 381573 346520 l 0 10681 m 0 2136 l 0 2136" class="C1" /><path d="M 385779 346520 l 0 16821" class="C1" /><path d="M 377368 346520 l 0 16821" class="C1" /><path d="M 448857 346520 l 0 10681 m 0 2136 l 0 2136" class="C1" /><path d="M 453062 346520 l 0 16821" class="C1" /><path d="M 444652 346520 l 0 16821" class="C1" /><path d="M 516140 346520 l 0 10681 m 0 2136 l 0 2136" class="C1" /><path d="M 520346 346520 l 0 16821" class="C1" /><path d="M 511935 346520 l 0 16821" class="C1" /><path d="M 583424 346520 l 0 10681 m 0 2136 l 0 2136" class="C1" /><path d="M 587629 346520 l 0 16821" class="C1" /><path d="M 579219 346520 l 0 16821" class="C1" /><path d="M 381573 279237 l 0 10681 m 0 2136 l 0 2136" class="C1" /><path d="M 385779 279237 l 0 16821" class="C1" /><path d="M 377368 279237 l 0 16821" class="C1" /><path d="M 448857 279237 l 0 10681 m 0 2136 l 0 2136" class="C1" /><path d="M 453062 279237 l 0 16821" class="C1" /><path d="M 444652 279237 l 0 16821" class="C1" /><path d="M 516140 279237 l 0 10681 m 0 2136 l 0 2136" class="C1" /><path d="M 520346 279237 l 0 16821" class="C1" /><path d="M 511935 279237 l 0 16821" class="C1" /><path d="M 583424 279237 l 0 10681 m 0 2136 l 0 2136" class="C1" /><path d="M 587629 279237 l 0 16821" class="C1" /><path d="M 579219 279237 l 0 16821" class="C1" /><path d="M 381573 211953 l 0 10681 m 0 2136 l 0 2136" class="C1" /><path d="M 385779 211953 l 0 16821" class="C1" /><path d="M 377368 211953 l 0 16821" class="C1" /><path d="M 448857 211953 l 0 10681 m 0 2136 l 0 2136" class="C1" /><path d="M 453062 211953 l 0 16821" class="C1" /><path d="M 444652 211953 l 0 16821" class="C1" /><path d="M 516140 211953 l 0 10681 m 0 2136 l 0 2136" class="C1" /><path d="M 520346 211953 l 0 16821" class="C1" /><path d="M 511935 211953 l 0 16821" class="C1" /><path d="M 583424 211953 l 0 10681 m 0 2136 l 0 2136" class="C1" /><path d="M 587629 211953 l 0 16821" class="C1" /><path d="M 579219 211953 l 0 16821" class="C1" /><path d="M 381573 144670 l 0 10681 m 0 2136 l 0 2136" class="C1" /><path d="M 385779 144670 l 0 16821" class="C1" /><path d="M 377368 144670 l 0 16821" class="C1" /><path d="M 448857 144670 l 0 10681 m 0 2136 l 0 2136" class="C1" /><path d="M 453062 144670 l 0 16821" class="C1" /><path d="M 444652 144670 l 0 16821" class="C1" /><path d="M 516140 144670 l 0 10681 m 0 2136 l 0 2136" class="C1" /><path d="M 520346 144670 l 0 16821" class="C1" /><path d="M 511935 144670 l 0 16821" class="C1" /><path d="M 583424 144670 l 0 10681 m 0 2136 l 0 2136" class="C1" /><path d="M 587629 144670 l 0 16821" class="C1" /><path d="M 579219 144670 l 0 16821" class="C1" /><path d="M 314290 346520 l 0 10681 m 0 2136 l 0 2136" class="C1" /><path d="M 318495 346520 l 0 16821" class="C1" /><path d="M 310085 346520 l 0 16821" class="C1" /><path d="M 314290 279237 l 0 10681 m 0 2136 l 0 2136" class="C1" /><path d="M 318495 279237 l 0 16821" class="C1" /><path d="M 310085 279237 l 0 16821" class="C1" /><path d="M 314290 211953 l 0 10681 m 0 2136 l 0 2136" class="C1" /><path d="M 318495 211953 l 0 16821" class="C1" /><path d="M 310085 211953 l 0 16821" class="C1" /><path d="M 314290 144670 l 0 10681 m 0 2136 l 0 2136" class="C1" /><path d="M 318495 144670 l 0 16821" class="C1" /><path d="M 310085 144670 l 0 16821" class="C1" /><path d="M 0 698907 l 991590 0" class="C2" /><path d="M 991590 698907 l 0 -690538" class="C2" /><path d="M 991590 8368 l -970563 0" class="C2" /><path d="M 21026 8368 l 0 690538" class="C2" /><path d="M 21026 18503 l 50463 0" class="C2" /><path d="M 71489 18503 l 0 -10093" class="C2" /><path d="M 0 707317 l 1000000 0" class="C2" /><path d="M 506308 0 l 0 12616" class="C2" /><path d="M 506308 707317 l 0 -12616" class="C2" /><path d="M 1000000 707317 l 0 -707317" class="C2" /><path d="M 0 353659 l 25231 0" class="C2" /><path d="M 1000000 353659 l -12616 0" class="C2" /><path d="M 1000000 0 l -1000000 0" class="C2" /><path d="M 43734 0 l 0 8368" class="C2" /><path d="M 85786 0 l 0 8368" class="C2" /><path d="M 0 0 l 0 707317" class="C2" /><path d="M 127839 0 l 0 8368" class="C2" /><path d="M 169891 0 l 0 8368" class="C2" /><path d="M 211943 0 l 0 8368" class="C2" /><path d="M 253995 0 l 0 8368" class="C2" /><path d="M 296047 0 l 0 8368" class="C2" /><path d="M 338099 0 l 0 8368" class="C2" /><path d="M 949537 675357 l 0 23549" class="C2" /><path d="M 939445 666947 l 0 16821" class="C2" /><path d="M 929352 666947 l 0 16821" class="C2" /><path d="M 923886 675357 l 0 8410" class="C2" /><path d="M 918419 675357 l 0 8410" class="C2" /><path d="M 912952 675357 l 0 8410" class="C2" /><path d="M 907485 666947 l 84104 0" class="C2" /><path d="M 907485 683768 l 84104 0" class="C2" /><path d="M 907490 691352 l 84099 0" class="C2" /><path d="M 870479 651808 l 0 23549" class="C2" /><path d="M 857023 651808 l 0 23549" class="C2" /><path d="M 848612 651808 l 0 23549" class="C2" /><path d="M 949537 651808 l 0 23549" class="C2" /><path d="M 907485 651808 l 0 47098" class="C2" /><path d="M 894029 651808 l 0 47098" class="C2" /><path d="M 883936 651808 l 0 47098" class="C2" /><path d="M 873844 675357 l 0 23549" class="C2" /><path d="M 860387 675357 l 0 23549" class="C2" /><path d="M 850294 675357 l 0 23549" class="C2" /><path d="M 840202 657696 l 67283 0" class="C2" /><path d="M 840202 663583 l 67283 0" class="C2" /><path d="M 840202 669470 l 67283 0" class="C2" /><path d="M 840202 675357 l 109336 0" class="C2" /><path d="M 840202 681245 l 67283 0" class="C2" /><path d="M 840202 687132 l 67283 0" class="C2" /><path d="M 840202 693019 l 67283 0" class="C2" /><path d="M 840202 651808 l 151388 0" class="C2" /><path d="M 840202 651808 l 0 47098" class="C2" /><path d="M 0 626577 l 21026 0" class="C2" /><path d="M 0 622372 l 21026 0" class="C2" /><path d="M 0 637511 l 21026 0" class="C2" /><path d="M 0 633305 l 21026 0" class="C2" /><path d="M 0 648444 l 21026 0" class="C2" /><path d="M 0 644239 l 21026 0" class="C2" /><path d="M 0 659378 l 21026 0" class="C2" /><path d="M 0 655172 l 21026 0" class="C2" /><path d="M 0 670311 l 21026 0" class="C2" /><path d="M 0 666106 l 21026 0" class="C2" /><path d="M 0 681245 l 21026 0" class="C2" /><path d="M 0 677040 l 21026 0" class="C2" /><path d="M 0 687973 l 21026 0" class="C2" /><path d="M 0 692178 l 21026 0" class="C2" /><path d="M 0 615643 l 21026 0" class="C2" /><path d="M 0 611438 l 21026 0" class="C2" /><path d="M 380151 0 l 0 8368" class="C2" /><path d="M 422204 0 l 0 8368" class="C2" /><path d="M 464256 0 l 0 8368" class="C2" /><path d="M 548360 0 l 0 8368" class="C2" /><path d="M 590412 0 l 0 8368" class="C2" /><path d="M 632464 0 l 0 8368" class="C2" /><path d="M 674516 0 l 0 8368" class="C2" /><path d="M 716569 0 l 0 8368" class="C2" /><path d="M 758621 0 l 0 8368" class="C2" /><path d="M 800673 0 l 0 8368" class="C2" /><path d="M 842725 0 l 0 8368" class="C2" /><path d="M 884777 0 l 0 8368" class="C2" /><path d="M 926829 0 l 0 8368" class="C2" /><path d="M 968881 0 l 0 8368" class="C2" /><path d="M 1000000 59294 l -8410 0" class="C2" /><path d="M 1000000 101346 l -8410 0" class="C2" /><path d="M 929352 691352 l 0 7555" class="C2" /><path d="M 1000000 143398 l -8410 0" class="C2" /><path d="M 1000000 185450 l -8410 0" class="C2" /><path d="M 1000000 227502 l -8410 0" class="C2" /><path d="M 1000000 269554 l -8410 0" class="C2" /><path d="M 1000000 311606 l -8410 0" class="C2" /><path d="M 1000000 395711 l -8410 0" class="C2" /><path d="M 1000000 437763 l -8410 0" class="C2" /><path d="M 1000000 479815 l -8410 0" class="C2" /><path d="M 1000000 521867 l -8410 0" class="C2" /><path d="M 1000000 563919 l -8410 0" class="C2" /><path d="M 1000000 605971 l -8410 0" class="C2" /><path d="M 1000000 648024 l -8410 0" class="C2" /><path d="M 968881 707317 l 0 -8410" class="C2" /><path d="M 926829 707317 l 0 -8410" class="C2" /><path d="M 884777 707317 l 0 -8410" class="C2" /><path d="M 842725 707317 l 0 -8410" class="C2" /><path d="M 800673 707317 l 0 -8410" class="C2" /><path d="M 758621 707317 l 0 -8410" class="C2" /><path d="M 716569 707317 l 0 -8410" class="C2" /><path d="M 674516 707317 l 0 -8410" class="C2" /><path d="M 632464 707317 l 0 -8410" class="C2" /><path d="M 590412 707317 l 0 -8410" class="C2" /><path d="M 548360 707317 l 0 -8410" class="C2" /><path d="M 464256 707317 l 0 -8410" class="C2" /><path d="M 422204 707317 l 0 -8410" class="C2" /><path d="M 380151 707317 l 0 -8410" class="C2" /><path d="M 338099 707317 l 0 -8410" class="C2" /><path d="M 296047 707317 l 0 -8410" class="C2" /><path d="M 253995 707317 l 0 -8410" class="C2" /><path d="M 211943 707317 l 0 -8410" class="C2" /><path d="M 169891 707317 l 0 -8410" class="C2" /><path d="M 127839 707317 l 0 -8410" class="C2" /><path d="M 85786 707317 l 0 -8410" class="C2" /><path d="M 43734 707317 l 0 -8410" class="C2" /><path d="M 0 605971 l 21026 0" class="C2" /><path d="M 0 563919 l 21026 0" class="C2" /><path d="M 0 521867 l 21026 0" class="C2" /><path d="M 0 479815 l 21026 0" class="C2" /><path d="M 0 437763 l 21026 0" class="C2" /><path d="M 0 395711 l 21026 0" class="C2" /><path d="M 0 311606 l 21026 0" class="C2" /><path d="M 0 269554 l 21026 0" class="C2" /><path d="M 0 227502 l 21026 0" class="C2" /><path d="M 0 185450 l 21026 0" class="C2" /><path d="M 0 143398 l 21026 0" class="C2" /><path d="M 0 101346 l 21026 0" class="C2" /><path d="M 0 59294 l 21026 0" class="C2" /><path d="M 281885 422214 c 0 2787 -2259 5046 -5046 5046 c -2787 0 -5046 -2259 -5046 -5046 c 0 -2787 2259 -5046 5046 -5046 c 2787 0 5046 2259 5046 5046" class="C1" /><path d="M 272634 396983 c 0 2322 1883 4205 4205 4205 c 2322 0 4205 -1883 4205 -4205" class="C1" /><path d="M 281044 380162 c 0 -2322 -1883 -4205 -4205 -4205 c -2322 0 -4205 1883 -4205 4205" class="C1" /><path d="M 318495 413804 c 0 -2322 -1883 -4205 -4205 -4205 c -2322 0 -4205 1883 -4205 4205" class="C1" /><path d="M 310085 430624 c 0 2322 1883 4205 4205 4205 c 2322 0 4205 -1883 4205 -4205" class="C1" /><path d="M 584660 119439 c 0 2787 -2259 5046 -5046 5046 c -2787 0 -5046 -2259 -5046 -5046 c 0 -2787 2259 -5046 5046 -5046 c 2787 0 5046 2259 5046 5046" class="C1" /><path d="M 339917 396983 c 0 2322 1883 4205 4205 4205 c 2322 0 4205 -1883 4205 -4205" class="C1" /><path d="M 348327 380162 c 0 -2322 -1883 -4205 -4205 -4205 c -2322 0 -4205 1883 -4205 4205" class="C1" /><path d="M 407200 396983 c 0 2322 1883 4205 4205 4205 c 2322 0 4205 -1883 4205 -4205" class="C1" /><path d="M 415611 380162 c 0 -2322 -1883 -4205 -4205 -4205 c -2322 0 -4205 1883 -4205 4205" class="C1" /><path d="M 474484 396983 c 0 2322 1883 4205 4205 4205 c 2322 0 4205 -1883 4205 -4205" class="C1" /><path d="M 482894 380162 c 0 -2322 -1883 -4205 -4205 -4205 c -2322 0 -4205 1883 -4205 4205" class="C1" /><path d="M 541767 396983 c 0 2322 1883 4205 4205 4205 c 2322 0 4205 -1883 4205 -4205" class="C1" /><path d="M 550178 380162 c 0 -2322 -1883 -4205 -4205 -4205 c -2322 0 -4205 1883 -4205 4205" class="C1" /><path d="M 339917 329699 c 0 2322 1883 4205 4205 4205 c 2322 0 4205 -1883 4205 -4205" class="C1" /><path d="M 348327 312878 c 0 -2322 -1883 -4205 -4205 -4205 c -2322 0 -4205 1883 -4205 4205" class="C1" /><path d="M 407200 329699 c 0 2322 1883 4205 4205 4205 c 2322 0 4205 -1883 4205 -4205" class="C1" /><path d="M 415611 312878 c 0 -2322 -1883 -4205 -4205 -4205 c -2322 0 -4205 1883 -4205 4205" class="C1" /><path d="M 474484 329699 c 0 2322 1883 4205 4205 4205 c 2322 0 4205 -1883 4205 -4205" class="C1" /><path d="M 482894 312878 c 0 -2322 -1883 -4205 -4205 -4205 c -2322 0 -4205 1883 -4205 4205" class="C1" /><path d="M 541767 329699 c 0 2322 1883 4205 4205 4205 c 2322 0 4205 -1883 4205 -4205" class="C1" /><path d="M 550178 312878 c 0 -2322 -1883 -4205 -4205 -4205 c -2322 0 -4205 1883 -4205 4205" class="C1" /><path d="M 339917 262416 c 0 2322 1883 4205 4205 4205 c 2322 0 4205 -1883 4205 -4205" class="C1" /><path d="M 348327 245595 c 0 -2322 -1883 -4205 -4205 -4205 c -2322 0 -4205 1883 -4205 4205" class="C1" /><path d="M 407200 262416 c 0 2322 1883 4205 4205 4205 c 2322 0 4205 -1883 4205 -4205" class="C1" /><path d="M 415611 245595 c 0 -2322 -1883 -4205 -4205 -4205 c -2322 0 -4205 1883 -4205 4205" class="C1" /><path d="M 474484 262416 c 0 2322 1883 4205 4205 4205 c 2322 0 4205 -1883 4205 -4205" class="C1" /><path d="M 482894 245595 c 0 -2322 -1883 -4205 -4205 -4205 c -2322 0 -4205 1883 -4205 4205" class="C1" /><path d="M 541767 262416 c 0 2322 1883 4205 4205 4205 c 2322 0 4205 -1883 4205 -4205" class="C1" /><path d="M 550178 245595 c 0 -2322 -1883 -4205 -4205 -4205 c -2322 0 -4205 1883 -4205 4205" class="C1" /><path d="M 339917 195132 c 0 2322 1883 4205 4205 4205 c 2322 0 4205 -1883 4205 -4205" class="C1" /><path d="M 348327 178312 c 0 -2322 -1883 -4205 -4205 -4205 c -2322 0 -4205 1883 -4205 4205" class="C1" /><path d="M 407200 195132 c 0 2322 1883 4205 4205 4205 c 2322 0 4205 -1883 4205 -4205" class="C1" /><path d="M 415611 178312 c 0 -2322 -1883 -4205 -4205 -4205 c -2322 0 -4205 1883 -4205 4205" class="C1" /><path d="M 474484 195132 c 0 2322 1883 4205 4205 4205 c 2322 0 4205 -1883 4205 -4205" class="C1" /><path d="M 482894 178312 c 0 -2322 -1883 -4205 -4205 -4205 c -2322 0 -4205 1883 -4205 4205" class="C1" /><path d="M 541767 195132 c 0 2322 1883 4205 4205 4205 c 2322 0 4205 -1883 4205 -4205" class="C1" /><path d="M 550178 178312 c 0 -2322 -1883 -4205 -4205 -4205 c -2322 0 -4205 1883 -4205 4205" class="C1" /><path d="M 339917 127849 c 0 2322 1883 4205 4205 4205 c 2322 0 4205 -1883 4205 -4205" class="C1" /><path d="M 348327 111028 c 0 -2322 -1883 -4205 -4205 -4205 c -2322 0 -4205 1883 -4205 4205" class="C1" /><path d="M 407200 127849 c 0 2322 1883 4205 4205 4205 c 2322 0 4205 -1883 4205 -4205" class="C1" /><path d="M 415611 111028 c 0 -2322 -1883 -4205 -4205 -4205 c -2322 0 -4205 1883 -4205 4205" class="C1" /><path d="M 474484 127849 c 0 2322 1883 4205 4205 4205 c 2322 0 4205 -1883 4205 -4205" class="C1" /><path d="M 482894 111028 c 0 -2322 -1883 -4205 -4205 -4205 c -2322 0 -4205 1883 -4205 4205" class="C1" /><path d="M 541767 127849 c 0 2322 1883 4205 4205 4205 c 2322 0 4205 -1883 4205 -4205" class="C1" /><path d="M 550178 111028 c 0 -2322 -1883 -4205 -4205 -4205 c -2322 0 -4205 1883 -4205 4205" class="C1" /><path d="M 272634 329699 c 0 2322 1883 4205 4205 4205 c 2322 0 4205 -1883 4205 -4205" class="C1" /><path d="M 281044 312878 c 0 -2322 -1883 -4205 -4205 -4205 c -2322 0 -4205 1883 -4205 4205" class="C1" /><path d="M 272634 262416 c 0 2322 1883 4205 4205 4205 c 2322 0 4205 -1883 4205 -4205" class="C1" /><path d="M 281044 245595 c 0 -2322 -1883 -4205 -4205 -4205 c -2322 0 -4205 1883 -4205 4205" class="C1" /><path d="M 272634 195132 c 0 2322 1883 4205 4205 4205 c 2322 0 4205 -1883 4205 -4205" class="C1" /><path d="M 281044 178312 c 0 -2322 -1883 -4205 -4205 -4205 c -2322 0 -4205 1883 -4205 4205" class="C1" /><path d="M 272634 127849 c 0 2322 1883 4205 4205 4205 c 2322 0 4205 -1883 4205 -4205" class="C1" /><path d="M 281044 111028 c 0 -2322 -1883 -4205 -4205 -4205 c -2322 0 -4205 1883 -4205 4205" class="C1" /><path d="M 385779 413804 c 0 -2322 -1883 -4205 -4205 -4205 c -2322 0 -4205 1883 -4205 4205" class="C1" /><path d="M 377368 430624 c 0 2322 1883 4205 4205 4205 c 2322 0 4205 -1883 4205 -4205" class="C1" /><path d="M 453062 413804 c 0 -2322 -1883 -4205 -4205 -4205 c -2322 0 -4205 1883 -4205 4205" class="C1" /><path d="M 444652 430624 c 0 2322 1883 4205 4205 4205 c 2322 0 4205 -1883 4205 -4205" class="C1" /><path d="M 520346 413804 c 0 -2322 -1883 -4205 -4205 -4205 c -2322 0 -4205 1883 -4205 4205" class="C1" /><path d="M 511935 430624 c 0 2322 1883 4205 4205 4205 c 2322 0 4205 -1883 4205 -4205" class="C1" /><path d="M 587629 413804 c 0 -2322 -1883 -4205 -4205 -4205 c -2322 0 -4205 1883 -4205 4205" class="C1" /><path d="M 579219 430624 c 0 2322 1883 4205 4205 4205 c 2322 0 4205 -1883 4205 -4205" class="C1" /><path d="M 385779 346520 c 0 -2322 -1883 -4205 -4205 -4205 c -2322 0 -4205 1883 -4205 4205" class="C1" /><path d="M 377368 363341 c 0 2322 1883 4205 4205 4205 c 2322 0 4205 -1883 4205 -4205" class="C1" /><path d="M 453062 346520 c 0 -2322 -1883 -4205 -4205 -4205 c -2322 0 -4205 1883 -4205 4205" class="C1" /><path d="M 444652 363341 c 0 2322 1883 4205 4205 4205 c 2322 0 4205 -1883 4205 -4205" class="C1" /><path d="M 520346 346520 c 0 -2322 -1883 -4205 -4205 -4205 c -2322 0 -4205 1883 -4205 4205" class="C1" /><path d="M 511935 363341 c 0 2322 1883 4205 4205 4205 c 2322 0 4205 -1883 4205 -4205" class="C1" /><path d="M 587629 346520 c 0 -2322 -1883 -4205 -4205 -4205 c -2322 0 -4205 1883 -4205 4205" class="C1" /><path d="M 579219 363341 c 0 2322 1883 4205 4205 4205 c 2322 0 4205 -1883 4205 -4205" class="C1" /><path d="M 385779 279237 c 0 -2322 -1883 -4205 -4205 -4205 c -2322 0 -4205 1883 -4205 4205" class="C1" /><path d="M 377368 296058 c 0 2322 1883 4205 4205 4205 c 2322 0 4205 -1883 4205 -4205" class="C1" /><path d="M 453062 279237 c 0 -2322 -1883 -4205 -4205 -4205 c -2322 0 -4205 1883 -4205 4205" class="C1" /><path d="M 444652 296058 c 0 2322 1883 4205 4205 4205 c 2322 0 4205 -1883 4205 -4205" class="C1" /><path d="M 520346 279237 c 0 -2322 -1883 -4205 -4205 -4205 c -2322 0 -4205 1883 -4205 4205" class="C1" /><path d="M 511935 296058 c 0 2322 1883 4205 4205 4205 c 2322 0 4205 -1883 4205 -4205" class="C1" /><path d="M 587629 279237 c 0 -2322 -1883 -4205 -4205 -4205 c -2322 0 -4205 1883 -4205 4205" class="C1" /><path d="M 579219 296058 c 0 2322 1883 4205 4205 4205 c 2322 0 4205 -1883 4205 -4205" class="C1" /><path d="M 385779 211953 c 0 -2322 -1883 -4205 -4205 -4205 c -2322 0 -4205 1883 -4205 4205" class="C1" /><path d="M 377368 228774 c 0 2322 1883 4205 4205 4205 c 2322 0 4205 -1883 4205 -4205" class="C1" /><path d="M 453062 211953 c 0 -2322 -1883 -4205 -4205 -4205 c -2322 0 -4205 1883 -4205 4205" class="C1" /><path d="M 444652 228774 c 0 2322 1883 4205 4205 4205 c 2322 0 4205 -1883 4205 -4205" class="C1" /><path d="M 520346 211953 c 0 -2322 -1883 -4205 -4205 -4205 c -2322 0 -4205 1883 -4205 4205" class="C1" /><path d="M 511935 228774 c 0 2322 1883 4205 4205 4205 c 2322 0 4205 -1883 4205 -4205" class="C1" /><path d="M 587629 211953 c 0 -2322 -1883 -4205 -4205 -4205 c -2322 0 -4205 1883 -4205 4205" class="C1" /><path d="M 579219 228774 c 0 2322 1883 4205 4205 4205 c 2322 0 4205 -1883 4205 -4205" class="C1" /><path d="M 385779 144670 c 0 -2322 -1883 -4205 -4205 -4205 c -2322 0 -4205 1883 -4205 4205" class="C1" /><path d="M 377368 161491 c 0 2322 1883 4205 4205 4205 c 2322 0 4205 -1883 4205 -4205" class="C1" /><path d="M 453062 144670 c 0 -2322 -1883 -4205 -4205 -4205 c -2322 0 -4205 1883 -4205 4205" class="C1" /><path d="M 444652 161491 c 0 2322 1883 4205 4205 4205 c 2322 0 4205 -1883 4205 -4205" class="C1" /><path d="M 520346 144670 c 0 -2322 -1883 -4205 -4205 -4205 c -2322 0 -4205 1883 -4205 4205" class="C1" /><path d="M 511935 161491 c 0 2322 1883 4205 4205 4205 c 2322 0 4205 -1883 4205 -4205" class="C1" /><path d="M 587629 144670 c 0 -2322 -1883 -4205 -4205 -4205 c -2322 0 -4205 1883 -4205 4205" class="C1" /><path d="M 579219 161491 c 0 2322 1883 4205 4205 4205 c 2322 0 4205 -1883 4205 -4205" class="C1" /><path d="M 318495 346520 c 0 -2322 -1883 -4205 -4205 -4205 c -2322 0 -4205 1883 -4205 4205" class="C1" /><path d="M 310085 363341 c 0 2322 1883 4205 4205 4205 c 2322 0 4205 -1883 4205 -4205" class="C1" /><path d="M 318495 279237 c 0 -2322 -1883 -4205 -4205 -4205 c -2322 0 -4205 1883 -4205 4205" class="C1" /><path d="M 310085 296058 c 0 2322 1883 4205 4205 4205 c 2322 0 4205 -1883 4205 -4205" class="C1" /><path d="M 318495 211953 c 0 -2322 -1883 -4205 -4205 -4205 c -2322 0 -4205 1883 -4205 4205" class="C1" /><path d="M 310085 228774 c 0 2322 1883 4205 4205 4205 c 2322 0 4205 -1883 4205 -4205" class="C1" /><path d="M 318495 144670 c 0 -2322 -1883 -4205 -4205 -4205 c -2322 0 -4205 1883 -4205 4205" class="C1" /><path d="M 310085 161491 c 0 2322 1883 4205 4205 4205 c 2322 0 4205 -1883 4205 -4205" class="C1" /><path d="M 596435 116074 c 0 -7432 -6025 -13457 -13457 -13457" class="C1" /><path d="M 582978 439035 c 7432 0 13457 -6025 13457 -13457" class="C1" /><path d="M 260018 425578 c 0 7432 6025 13457 13457 13457" class="C1" /><path d="M 273475 102618 c -7432 0 -13457 6025 -13457 13457" class="C1" /><path d="M 429905 270826 l 0 0" class="C1" /><path d="M 276839 439035 l 0 0" class="C1" /><path d="M 260018 422214 l 0 0" class="C1" /><path d="M 276839 388572 l 0 0" class="C1" /><path d="M 314290 422214 l 0 0" class="C1" /><path d="M 344122 388572 l 0 0" class="C1" /><path d="M 411406 388572 l 0 0" class="C1" /><path d="M 478689 388572 l 0 0" class="C1" /><path d="M 545972 388572 l 0 0" class="C1" /><path d="M 344122 321289 l 0 0" class="C1" /><path d="M 411406 321289 l 0 0" class="C1" /><path d="M 478689 321289 l 0 0" class="C1" /><path d="M 545972 321289 l 0 0" class="C1" /><path d="M 344122 254005 l 0 0" class="C1" /><path d="M 411406 254005 l 0 0" class="C1" /><path d="M 478689 254005 l 0 0" class="C1" /><path d="M 545972 254005 l 0 0" class="C1" /><path d="M 344122 186722 l 0 0" class="C1" /><path d="M 411406 186722 l 0 0" class="C1" /><path d="M 478689 186722 l 0 0" class="C1" /><path d="M 545972 186722 l 0 0" class="C1" /><path d="M 344122 119439 l 0 0" class="C1" /><path d="M 411406 119439 l 0 0" class="C1" /><path d="M 478689 119439 l 0 0" class="C1" /><path d="M 545972 119439 l 0 0" class="C1" /><path d="M 276839 321289 l 0 0" class="C1" /><path d="M 276839 254005 l 0 0" class="C1" /><path d="M 276839 186722 l 0 0" class="C1" /><path d="M 276839 119439 l 0 0" class="C1" /><path d="M 381573 422214 l 0 0" class="C1" /><path d="M 448857 422214 l 0 0" class="C1" /><path d="M 516140 422214 l 0 0" class="C1" /><path d="M 583424 422214 l 0 0" class="C1" /><path d="M 381573 354931 l 0 0" class="C1" /><path d="M 448857 354931 l 0 0" class="C1" /><path d="M 516140 354931 l 0 0" class="C1" /><path d="M 583424 354931 l 0 0" class="C1" /><path d="M 381573 287647 l 0 0" class="C1" /><path d="M 448857 287647 l 0 0" class="C1" /><path d="M 516140 287647 l 0 0" class="C1" /><path d="M 583424 287647 l 0 0" class="C1" /><path d="M 381573 220364 l 0 0" class="C1" /><path d="M 448857 220364 l 0 0" class="C1" /><path d="M 516140 220364 l 0 0" class="C1" /><path d="M 583424 220364 l 0 0" class="C1" /><path d="M 381573 153080 l 0 0" class="C1" /><path d="M 448857 153080 l 0 0" class="C1" /><path d="M 516140 153080 l 0 0" class="C1" /><path d="M 583424 153080 l 0 0" class="C1" /><path d="M 314290 354931 l 0 0" class="C1" /><path d="M 314290 287647 l 0 0" class="C1" /><path d="M 314290 220364 l 0 0" class="C1" /><path d="M 314290 153080 l 0 0" class="C1" /><path d="M 289661 396983 l -427 3431 854 0 Z" class="C3" /><path d="M 289661 422214 l 427 -3431 -854 0 Z" class="C3" /><path d="M 276839 396983 l 14505 0" class="C4" /><path d="M 276839 422214 l 14505 0" class="C4" /><path d="M 289661 396983 l 0 25231" class="C4" /><path d="M 288475 417782 l 0 -455 l -2246 0 l 142 495 l -363 0 l -142 -493 l 0 -279 l 2608 0 l 0 -455 l 335 0 l 0 1187 l -335 0 Z M 285867 416030 l 0 -1094 l 335 0 l 0 839 l 722 0 q -30 -61 -44 -121 q -15 -61 -15 -121 q 0 -345 270 -547 q 270 -202 731 -202 q 475 0 738 207 q 263 207 263 584 q 0 130 -32 264 q -32 135 -95 278 l -400 0 q 97 -124 144 -257 q 47 -132 47 -280 q 0 -239 -179 -378 q -179 -139 -487 -139 q -308 0 -487 139 q -179 139 -179 378 q 0 112 35 223 q 35 111 110 227 l -1479 0 Z" class="C3" /><path d="M 328323 413804 l -427 3431 854 0 Z" class="C3" /><path d="M 328323 430624 l 427 -3431 -854 0 Z" class="C3" /><path d="M 314290 413804 l 15715 0" class="C4" /><path d="M 314290 430624 l 15715 0" class="C4" /><path d="M 328323 413804 l 0 16821" class="C4" /><path d="M 327137 431174 l 0 -455 l -2246 0 l 142 495 l -363 0 l -142 -493 l 0 -279 l 2608 -0 l 0 -455 l 335 0 l 0 1187 l -335 0 Z M 324791 428828 q 0 215 303 324 q 303 108 910 108 q 605 0 908 -108 q 303 -108 303 -324 q 0 -217 -303 -325 q -303 -108 -908 -108 q -607 0 -910 108 q -303 108 -303 325 m -315 0 q 0 -346 391 -529 q 391 -183 1137 -183 q 743 0 1135 183 q 391 183 391 529 q 0 346 -391 529 q -391 183 -1135 183 q -745 0 -1137 -183 q -391 -183 -391 -529 Z" class="C3" /><path d="M 293109 380162 l -427 3431 854 0 Z" class="C3" /><path d="M 293109 396983 l 427 -3431 -854 0 Z" class="C3" /><path d="M 276839 380162 l 17952 0" class="C4" /><path d="M 276839 396983 l 17952 0" class="C4" /><path d="M 293109 380162 l 0 16821" class="C4" /><path d="M 291923 394933 l 0 -455 l -2246 0 l 142 495 l -363 0 l -142 -493 l 0 -279 l 2608 -0 l 0 -455 l 335 0 l 0 1187 l -335 0 Z M 289576 392586 q 0 215 303 324 q 303 108 910 108 q 605 0 908 -108 q 303 -108 303 -324 q 0 -217 -303 -325 q -303 -108 -908 -108 q -607 0 -910 108 q -303 108 -303 325 m -315 0 q 0 -346 391 -529 q 391 -183 1137 -183 q 743 0 1135 183 q 391 183 391 529 q 0 346 -391 529 q -391 183 -1135 183 q -745 0 -1137 -183 q -391 -183 -391 -529 Z" class="C3" /><path d="M 335553 430624 l 427 -3431 -854 0 Z" class="C3" /><path d="M 335553 439035 l -427 3431 854 0 Z" class="C3" /><path d="M 314290 430624 l 22945 0" class="C4" /><path d="M 335553 430624 l 0 -5341" class="C4" /><path d="M 335553 430624 l 0 8410" class="C4" /><path d="M 335553 439035 l 0 5341" class="C4" /><path d="M 331759 436123 l 0 -1094 l 335 0 l 0 839 l 722 0 q -30 -61 -44 -121 q -15 -61 -15 -121 q -0 -345 270 -547 q 270 -202 731 -202 q 475 0 738 207 q 263 207 263 584 q 0 130 -32 264 q -32 135 -95 278 l -400 0 q 97 -124 144 -257 q 47 -132 47 -280 q 0 -239 -179 -378 q -179 -139 -487 -139 q -308 0 -487 139 q -179 139 -179 378 q 0 112 35 223 q 35 111 110 227 l -1479 0 Z" class="C3" /><path d="M 592494 106559 l 2729 -2124 -604 -604 Z" class="C3" /><path d="M 592494 106559 l 10383 -10383" class="C4" /><path d="M 592494 106559 l -9515 9515" class="C4" /><path d="M 600367 95536 q 94 -33 255 8 q 160 40 397 156 l 769 369 l -212 212 l -720 -348 q -281 -137 -417 -137 q -136 -0 -253 117 l -215 215 l 880 880 l -197 197 l -2081 -2081 l 445 -445 q 250 -250 522 -224 q 272 26 573 327 q 197 197 262 390 q 66 194 -6 366 m -1368 -380 l 739 739 l 248 -248 q 142 -142 121 -309 q -21 -167 -204 -349 q -183 -183 -348 -203 q -165 -20 -308 122 l -248 248 Z M 601492 94387 q -141 141 -114 328 q 27 188 215 376 q 188 188 376 215 q 188 27 328 -114 q 141 -141 113 -330 q -27 -189 -214 -376 q -188 -188 -376 -215 q -188 -27 -329 115 m -317 77 q -171 82 -366 29 q -195 -53 -373 -232 q -250 -250 -270 -519 q -21 -269 196 -486 q 218 -218 487 -197 q 269 21 518 271 q 178 178 232 373 q 53 195 -28 365 q 190 -95 407 -37 q 218 58 417 258 q 303 303 335 594 q 32 291 -209 532 q -241 241 -532 209 q -291 -32 -594 -335 q -199 -199 -257 -417 q -58 -218 37 -408 m -517 -373 q 162 162 323 182 q 161 20 289 -108 q 127 -127 108 -289 q -19 -162 -181 -324 q -162 -162 -324 -181 q -162 -19 -289 108 q -128 128 -108 289 q 20 161 182 323 Z" class="C3" /><path d="M 237756 388572 l 427 -3431 -854 0 Z" class="C3" /><path d="M 237756 321289 l -427 3431 854 0 Z" class="C3" /><path d="M 276839 388572 l -40765 0" class="C4" /><path d="M 276839 321289 l -40765 0" class="C4" /><path d="M 237756 388572 l 0 -67283" class="C4" /><path d="M 234309 334553 l 1571 704 l 0 -704 l -1571 0 m -347 73 l 0 -351 l 1918 0 l 0 -294 l 331 0 l 0 294 l 694 0 l 0 277 l -694 0 l 0 930 l -384 0 l -1865 -857 Z M 234224 332925 q 0 215 303 324 q 303 108 910 108 q 605 0 908 -108 q 303 -108 303 -324 q 0 -217 -303 -325 q -303 -108 -908 -108 q -607 0 -910 108 q -303 108 -303 325 m -315 0 q 0 -346 391 -529 q 391 -183 1137 -183 q 743 0 1135 183 q 391 183 391 529 q 0 346 -391 529 q -391 183 -1135 183 q -745 0 -1137 -183 q -391 -183 -391 -529 Z" class="C3" /><path d="M 276839 230737 l -3431 -427 0 854 Z" class="C3" /><path d="M 260018 230737 l 3431 427 0 -854 Z" class="C3" /><path d="M 276839 254005 l 0 -24951" class="C4" /><path d="M 276839 230737 l -16821 0" class="C4" /><path d="M 268511 229551 l 455 0 l 0 -2246 l -495 142 l 0 -363 l 493 -142 l 279 0 l 0 2608 l 455 0 l 0 335 l -1187 0 l 0 -335 Z M 270857 227204 q -215 0 -324 303 q -108 303 -108 910 q 0 605 108 908 q 108 303 324 303 q 217 0 325 -303 q 108 -303 108 -908 q 0 -607 -108 -910 q -108 -303 -325 -303 m 0 -315 q 346 0 529 391 q 183 391 183 1137 q 0 743 -183 1135 q -183 391 -529 391 q -346 0 -529 -391 q -183 -391 -183 -1135 q 0 -745 183 -1137 q 183 -391 529 -391 Z" class="C3" /><path d="M 299941 422214 l -427 3431 854 0 Z" class="C3" /><path d="M 299941 439035 l 427 -3431 -854 0 Z" class="C3" /><path d="M 314290 422214 l -16031 0" class="C4" /><path d="M 299941 422214 l 0 16821" class="C4" /><path d="M 298755 430568 l 0 -455 l -2246 0 l 142 495 l -363 0 l -142 -493 l 0 -279 l 2608 0 l 0 -455 l 335 0 l 0 1187 l -335 0 Z M 296409 428221 q 0 215 303 324 q 303 108 910 108 q 605 0 908 -108 q 303 -108 303 -324 q 0 -217 -303 -325 q -303 -108 -908 -108 q -607 0 -910 108 q -303 108 -303 325 m -315 0 q 0 -346 391 -529 q 391 -183 1137 -183 q 743 0 1135 183 q 391 183 391 529 q 0 346 -391 529 q -391 183 -1135 183 q -745 0 -1137 -183 q -391 -183 -391 -529 Z" class="C3" /><path d="M 875702 698178 l 0 -3561 l 1413 0 l 0 3561 l -1413 0 m 159 -225 l 1097 0 l 0 -3109 l -1097 0 l 0 3109 Z M 877398 698178 l 0 -3561 l 1413 0 l 0 3561 l -1413 0 m 159 -225 l 1097 0 l 0 -3109 l -1097 0 l 0 3109 Z M 879094 698178 l 0 -3561 l 1413 0 l 0 3561 l -1413 0 m 159 -225 l 1097 0 l 0 -3109 l -1097 0 l 0 3109 Z M 880790 698178 l 0 -3561 l 1413 0 l 0 3561 l -1413 0 m 159 -225 l 1097 0 l 0 -3109 l -1097 0 l 0 3109 Z" class="C3" /><path d="M 873249 680396 l 0 -3561 l 1413 0 l 0 3561 l -1413 0 m 159 -225 l 1097 0 l 0 -3109 l -1097 0 l 0 3109 Z M 874945 680396 l 0 -3561 l 1413 0 l 0 3561 l -1413 0 m 159 -225 l 1097 0 l 0 -3109 l -1097 0 l 0 3109 Z M 876642 680396 l 0 -3561 l 1413 0 l 0 3561 l -1413 0 m 159 -225 l 1097 0 l 0 -3109 l -1097 0 l 0 3109 Z M 878338 680396 l 0 -3561 l 1413 0 l 0 3561 l -1413 0 m 159 -225 l 1097 0 l 0 -3109 l -1097 0 l 0 3109 Z M 880034 680396 l 0 -3561 l 1413 0 l 0 3561 l -1413 0 m 159 -225 l 1097 0 l 0 -3109 l -1097 0 l 0 3109 Z M 881730 680396 l 0 -3561 l 1413 0 l 0 3561 l -1413 0 m 159 -225 l 1097 0 l 0 -3109 l -1097 0 l 0 3109 Z M 883426 680396 l 0 -3561 l 1413 0 l 0 3561 l -1413 0 m 159 -225 l 1097 0 l 0 -3109 l -1097 0 l 0 3109 Z" class="C3" /><path d="M 874005 686391 l 0 -3561 l 1413 0 l 0 3561 l -1413 0 m 159 -225 l 1097 0 l 0 -3109 l -1097 0 l 0 3109 Z M 875702 686391 l 0 -3561 l 1413 0 l 0 3561 l -1413 0 m 159 -225 l 1097 0 l 0 -3109 l -1097 0 l 0 3109 Z M 877398 686391 l 0 -3561 l 1413 0 l 0 3561 l -1413 0 m 159 -225 l 1097 0 l 0 -3109 l -1097 0 l 0 3109 Z M 879094 686391 l 0 -3561 l 1413 0 l 0 3561 l -1413 0 m 159 -225 l 1097 0 l 0 -3109 l -1097 0 l 0 3109 Z M 880790 686391 l 0 -3561 l 1413 0 l 0 3561 l -1413 0 m 159 -225 l 1097 0 l 0 -3109 l -1097 0 l 0 3109 Z M 882486 686391 l 0 -3561 l 1413 0 l 0 3561 l -1413 0 m 159 -225 l 1097 0 l 0 -3109 l -1097 0 l 0 3109 Z" class="C3" /><path d="M 874853 692262 l 0 -3561 l 1413 0 l 0 3561 l -1413 0 m 159 -225 l 1097 0 l 0 -3109 l -1097 0 l 0 3109 Z M 876550 692262 l 0 -3561 l 1413 0 l 0 3561 l -1413 0 m 159 -225 l 1097 0 l 0 -3109 l -1097 0 l 0 3109 Z M 878246 692262 l 0 -3561 l 1413 0 l 0 3561 l -1413 0 m 159 -225 l 1097 0 l 0 -3109 l -1097 0 l 0 3109 Z M 879942 692262 l 0 -3561 l 1413 0 l 0 3561 l -1413 0 m 159 -225 l 1097 0 l 0 -3109 l -1097 0 l 0 3109 Z M 881638 692262 l 0 -3561 l 1413 0 l 0 3561 l -1413 0 m 159 -225 l 1097 0 l 0 -3109 l -1097 0 l 0 3109 Z" class="C3" /><path d="M 841691 680052 l 0 -3561 l 1413 0 l 0 3561 l -1413 0 m 159 -225 l 1097 0 l 0 -3109 l -1097 0 l 0 3109 Z M 843387 680052 l 0 -3561 l 1413 0 l 0 3561 l -1413 0 m 159 -225 l 1097 0 l 0 -3109 l -1097 0 l 0 3109 Z M 845083 680052 l 0 -3561 l 1413 0 l 0 3561 l -1413 0 m 159 -225 l 1097 0 l 0 -3109 l -1097 0 l 0 3109 Z M 846779 680052 l 0 -3561 l 1413 0 l 0 3561 l -1413 0 m 159 -225 l 1097 0 l 0 -3109 l -1097 0 l 0 3109 Z M 848475 680052 l 0 -3561 l 1413 0 l 0 3561 l -1413 0 m 159 -225 l 1097 0 l 0 -3109 l -1097 0 l 0 3109 Z" class="C3" /><path d="M 918684 697360 l 0 -3561 l 1211 0 l 0 3561 l -1211 0 m 136 -225 l 940 0 l 0 -3109 l -940 0 l 0 3109 Z M 920138 697360 l 0 -3561 l 1211 0 l 0 3561 l -1211 0 m 136 -225 l 940 0 l 0 -3109 l -940 0 l 0 3109 Z M 921592 697360 l 0 -3561 l 1211 0 l 0 3561 l -1211 0 m 136 -225 l 940 0 l 0 -3109 l -940 0 l 0 3109 Z" class="C3" /><path d="M 924586 697360 l 0 -3561 l 1211 0 l 0 3561 l -1211 0 m 136 -225 l 940 0 l 0 -3109 l -940 0 l 0 3109 Z M 926040 697360 l 0 -3561 l 1211 0 l 0 3561 l -1211 0 m 136 -225 l 940 0 l 0 -3109 l -940 0 l 0 3109 Z M 927494 697360 l 0 -3561 l 1211 0 l 0 3561 l -1211 0 m 136 -225 l 940 0 l 0 -3109 l -940 0 l 0 3109 Z" class="C3" /><path d="M 908683 697360 l 0 -3561 l 1211 0 l 0 3561 l -1211 0 m 136 -225 l 940 0 l 0 -3109 l -940 0 l 0 3109 Z M 910137 697360 l 0 -3561 l 1211 0 l 0 3561 l -1211 0 m 136 -225 l 940 0 l 0 -3109 l -940 0 l 0 3109 Z M 911591 697360 l 0 -3561 l 1211 0 l 0 3561 l -1211 0 m 136 -225 l 940 0 l 0 -3109 l -940 0 l 0 3109 Z" class="C3" /><path d="M 914585 697360 l 0 -3561 l 1211 0 l 0 3561 l -1211 0 m 136 -225 l 940 0 l 0 -3109 l -940 0 l 0 3109 Z M 916039 697360 l 0 -3561 l 1211 0 l 0 3561 l -1211 0 m 136 -225 l 940 0 l 0 -3109 l -940 0 l 0 3109 Z M 917493 697360 l 0 -3561 l 1211 0 l 0 3561 l -1211 0 m 136 -225 l 940 0 l 0 -3109 l -940 0 l 0 3109 Z" class="C3" /><path d="M 940114 673287 l 0 -3561 l 1413 0 l 0 3561 l -1413 0 m 159 -225 l 1097 0 l 0 -3109 l -1097 0 l 0 3109 Z M 941811 673287 l 0 -3561 l 1413 0 l 0 3561 l -1413 0 m 159 -225 l 1097 0 l 0 -3109 l -1097 0 l 0 3109 Z M 943507 673287 l 0 -3561 l 1413 0 l 0 3561 l -1413 0 m 159 -225 l 1097 0 l 0 -3109 l -1097 0 l 0 3109 Z M 945203 673287 l 0 -3561 l 1413 0 l 0 3561 l -1413 0 m 159 -225 l 1097 0 l 0 -3109 l -1097 0 l 0 3109 Z M 946899 673287 l 0 -3561 l 1413 0 l 0 3561 l -1413 0 m 159 -225 l 1097 0 l 0 -3109 l -1097 0 l 0 3109 Z M 948595 673287 l 0 -3561 l 1413 0 l 0 3561 l -1413 0 m 159 -225 l 1097 0 l 0 -3109 l -1097 0 l 0 3109 Z" class="C3" /><path d="M 930119 673287 l 0 -3561 l 1413 0 l 0 3561 l -1413 0 m 159 -225 l 1097 0 l 0 -3109 l -1097 0 l 0 3109 Z M 931815 673287 l 0 -3561 l 1413 0 l 0 3561 l -1413 0 m 159 -225 l 1097 0 l 0 -3109 l -1097 0 l 0 3109 Z M 933511 673287 l 0 -3561 l 1413 0 l 0 3561 l -1413 0 m 159 -225 l 1097 0 l 0 -3109 l -1097 0 l 0 3109 Z M 935207 673287 l 0 -3561 l 1413 0 l 0 3561 l -1413 0 m 159 -225 l 1097 0 l 0 -3109 l -1097 0 l 0 3109 Z M 936903 673287 l 0 -3561 l 1413 0 l 0 3561 l -1413 0 m 159 -225 l 1097 0 l 0 -3109 l -1097 0 l 0 3109 Z M 938600 673287 l 0 -3561 l 1413 0 l 0 3561 l -1413 0 m 159 -225 l 1097 0 l 0 -3109 l -1097 0 l 0 3109 Z" class="C3" /><path d="M 908976 673287 l 0 -3561 l 1240 0 l 0 3561 l -1240 0 m 139 -225 l 963 0 l 0 -3109 l -963 0 l 0 3109 Z M 910465 673287 l 0 -3561 l 1240 0 l 0 3561 l -1240 0 m 139 -225 l 963 0 l 0 -3109 l -963 0 l 0 3109 Z M 911953 673287 l 0 -3561 l 1240 0 l 0 3561 l -1240 0 m 139 -225 l 963 0 l 0 -3109 l -963 0 l 0 3109 Z" class="C3" /><path d="M 914230 673287 l 0 -3561 l 1240 0 l 0 3561 l -1240 0 m 139 -225 l 963 0 l 0 -3109 l -963 0 l 0 3109 Z M 915719 673287 l 0 -3561 l 1240 0 l 0 3561 l -1240 0 m 139 -225 l 963 0 l 0 -3109 l -963 0 l 0 3109 Z M 917207 673287 l 0 -3561 l 1240 0 l 0 3561 l -1240 0 m 139 -225 l 963 0 l 0 -3109 l -963 0 l 0 3109 Z" class="C3" /><path d="M 919484 673287 l 0 -3561 l 1240 0 l 0 3561 l -1240 0 m 139 -225 l 963 0 l 0 -3109 l -963 0 l 0 3109 Z M 920972 673287 l 0 -3561 l 1240 0 l 0 3561 l -1240 0 m 139 -225 l 963 0 l 0 -3109 l -963 0 l 0 3109 Z M 922461 673287 l 0 -3561 l 1240 0 l 0 3561 l -1240 0 m 139 -225 l 963 0 l 0 -3109 l -963 0 l 0 3109 Z" class="C3" /><path d="M 924738 673287 l 0 -3561 l 1240 0 l 0 3561 l -1240 0 m 139 -225 l 963 0 l 0 -3109 l -963 0 l 0 3109 Z M 926226 673287 l 0 -3561 l 1240 0 l 0 3561 l -1240 0 m 139 -225 l 963 0 l 0 -3109 l -963 0 l 0 3109 Z M 927715 673287 l 0 -3561 l 1240 0 l 0 3561 l -1240 0 m 139 -225 l 963 0 l 0 -3109 l -963 0 l 0 3109 Z" class="C3" /><path d="M 893838 674552 l 0 -3561 l 1252 0 l 0 3561 l -1252 0 m 141 -225 l 972 0 l 0 -3109 l -972 0 l 0 3109 Z M 895341 674552 l 0 -3561 l 1252 0 l 0 3561 l -1252 0 m 141 -225 l 972 0 l 0 -3109 l -972 0 l 0 3109 Z M 896843 674552 l 0 -3561 l 1252 0 l 0 3561 l -1252 0 m 141 -225 l 972 0 l 0 -3109 l -972 0 l 0 3109 Z" class="C3" /><path d="M 899141 674552 l 0 -3561 l 1252 0 l 0 3561 l -1252 0 m 141 -225 l 972 0 l 0 -3109 l -972 0 l 0 3109 Z M 900644 674552 l 0 -3561 l 1252 0 l 0 3561 l -1252 0 m 141 -225 l 972 0 l 0 -3109 l -972 0 l 0 3109 Z M 902146 674552 l 0 -3561 l 1252 0 l 0 3561 l -1252 0 m 141 -225 l 972 0 l 0 -3109 l -972 0 l 0 3109 Z" class="C3" /><path d="M 904444 674552 l 0 -3561 l 1252 0 l 0 3561 l -1252 0 m 141 -225 l 972 0 l 0 -3109 l -972 0 l 0 3109 Z M 905947 674552 l 0 -3561 l 1252 0 l 0 3561 l -1252 0 m 141 -225 l 972 0 l 0 -3109 l -972 0 l 0 3109 Z M 907449 674552 l 0 -3561 l 1252 0 l 0 3561 l -1252 0 m 141 -225 l 972 0 l 0 -3109 l -972 0 l 0 3109 Z" class="C3" /><path d="M 886182 674552 l 0 -3561 l 1413 0 l 0 3561 l -1413 0 m 159 -225 l 1097 0 l 0 -3109 l -1097 0 l 0 3109 Z M 887878 674552 l 0 -3561 l 1413 0 l 0 3561 l -1413 0 m 159 -225 l 1097 0 l 0 -3109 l -1097 0 l 0 3109 Z M 889575 674552 l 0 -3561 l 1413 0 l 0 3561 l -1413 0 m 159 -225 l 1097 0 l 0 -3109 l -1097 0 l 0 3109 Z M 891271 674552 l 0 -3561 l 1413 0 l 0 3561 l -1413 0 m 159 -225 l 1097 0 l 0 -3109 l -1097 0 l 0 3109 Z" class="C3" /><path d="M 866729 674552 l 0 -3561 l 1413 0 l 0 3561 l -1413 0 m 159 -225 l 1097 0 l 0 -3109 l -1097 0 l 0 3109 Z M 868425 674552 l 0 -3561 l 1413 0 l 0 3561 l -1413 0 m 159 -225 l 1097 0 l 0 -3109 l -1097 0 l 0 3109 Z M 870121 674552 l 0 -3561 l 1413 0 l 0 3561 l -1413 0 m 159 -225 l 1097 0 l 0 -3109 l -1097 0 l 0 3109 Z M 871818 674552 l 0 -3561 l 1413 0 l 0 3561 l -1413 0 m 159 -225 l 1097 0 l 0 -3109 l -1097 0 l 0 3109 Z M 873514 674552 l 0 -3561 l 1413 0 l 0 3561 l -1413 0 m 159 -225 l 1097 0 l 0 -3109 l -1097 0 l 0 3109 Z M 875210 674552 l 0 -3561 l 1413 0 l 0 3561 l -1413 0 m 159 -225 l 1097 0 l 0 -3109 l -1097 0 l 0 3109 Z M 876906 674552 l 0 -3561 l 1413 0 l 0 3561 l -1413 0 m 159 -225 l 1097 0 l 0 -3109 l -1097 0 l 0 3109 Z M 878602 674552 l 0 -3561 l 1413 0 l 0 3561 l -1413 0 m 159 -225 l 1097 0 l 0 -3109 l -1097 0 l 0 3109 Z M 880299 674552 l 0 -3561 l 1413 0 l 0 3561 l -1413 0 m 159 -225 l 1097 0 l 0 -3109 l -1097 0 l 0 3109 Z M 881995 674552 l 0 -3561 l 1413 0 l 0 3561 l -1413 0 m 159 -225 l 1097 0 l 0 -3109 l -1097 0 l 0 3109 Z M 883691 674552 l 0 -3561 l 1413 0 l 0 3561 l -1413 0 m 159 -225 l 1097 0 l 0 -3109 l -1097 0 l 0 3109 Z M 885387 674552 l 0 -3561 l 1413 0 l 0 3561 l -1413 0 m 159 -225 l 1097 0 l 0 -3109 l -1097 0 l 0 3109 Z M 887083 674552 l 0 -3561 l 1413 0 l 0 3561 l -1413 0 m 159 -225 l 1097 0 l 0 -3109 l -1097 0 l 0 3109 Z" class="C3" /><path d="M 859062 674552 l 0 -3561 l 1413 0 l 0 3561 l -1413 0 m 159 -225 l 1097 0 l 0 -3109 l -1097 0 l 0 3109 Z M 860758 674552 l 0 -3561 l 1413 0 l 0 3561 l -1413 0 m 159 -225 l 1097 0 l 0 -3109 l -1097 0 l 0 3109 Z M 862455 674552 l 0 -3561 l 1413 0 l 0 3561 l -1413 0 m 159 -225 l 1097 0 l 0 -3109 l -1097 0 l 0 3109 Z M 864151 674552 l 0 -3561 l 1413 0 l 0 3561 l -1413 0 m 159 -225 l 1097 0 l 0 -3109 l -1097 0 l 0 3109 Z M 865847 674552 l 0 -3561 l 1413 0 l 0 3561 l -1413 0 m 159 -225 l 1097 0 l 0 -3109 l -1097 0 l 0 3109 Z M 867543 674552 l 0 -3561 l 1413 0 l 0 3561 l -1413 0 m 159 -225 l 1097 0 l 0 -3109 l -1097 0 l 0 3109 Z" class="C3" /><path d="M 848014 674552 l 0 -3561 l 1413 0 l 0 3561 l -1413 0 m 159 -225 l 1097 0 l 0 -3109 l -1097 0 l 0 3109 Z M 849710 674552 l 0 -3561 l 1413 0 l 0 3561 l -1413 0 m 159 -225 l 1097 0 l 0 -3109 l -1097 0 l 0 3109 Z M 851406 674552 l 0 -3561 l 1413 0 l 0 3561 l -1413 0 m 159 -225 l 1097 0 l 0 -3109 l -1097 0 l 0 3109 Z M 853102 674552 l 0 -3561 l 1413 0 l 0 3561 l -1413 0 m 159 -225 l 1097 0 l 0 -3109 l -1097 0 l 0 3109 Z M 854798 674552 l 0 -3561 l 1413 0 l 0 3561 l -1413 0 m 159 -225 l 1097 0 l 0 -3109 l -1097 0 l 0 3109 Z M 856495 674552 l 0 -3561 l 1413 0 l 0 3561 l -1413 0 m 159 -225 l 1097 0 l 0 -3109 l -1097 0 l 0 3109 Z" class="C3" /><path d="M 840514 674552 l 0 -3561 l 1413 0 l 0 3561 l -1413 0 m 159 -225 l 1097 0 l 0 -3109 l -1097 0 l 0 3109 Z M 842210 674552 l 0 -3561 l 1413 0 l 0 3561 l -1413 0 m 159 -225 l 1097 0 l 0 -3109 l -1097 0 l 0 3109 Z M 843906 674552 l 0 -3561 l 1413 0 l 0 3561 l -1413 0 m 159 -225 l 1097 0 l 0 -3109 l -1097 0 l 0 3109 Z M 845602 674552 l 0 -3561 l 1413 0 l 0 3561 l -1413 0 m 159 -225 l 1097 0 l 0 -3109 l -1097 0 l 0 3109 Z M 847298 674552 l 0 -3561 l 1413 0 l 0 3561 l -1413 0 m 159 -225 l 1097 0 l 0 -3109 l -1097 0 l 0 3109 Z" class="C3" /><path d="M 3666 670240 l 0 -3561 l 1240 0 l 0 3561 l -1240 0 m 139 -225 l 963 0 l 0 -3109 l -963 0 l 0 3109 Z M 5155 670240 l 0 -3561 l 1240 0 l 0 3561 l -1240 0 m 139 -225 l 963 0 l 0 -3109 l -963 0 l 0 3109 Z M 6643 670240 l 0 -3561 l 1240 0 l 0 3561 l -1240 0 m 139 -225 l 963 0 l 0 -3109 l -963 0 l 0 3109 Z" class="C3" /><path d="M 8920 670240 l 0 -3561 l 1240 0 l 0 3561 l -1240 0 m 139 -225 l 963 0 l 0 -3109 l -963 0 l 0 3109 Z" class="C3" /><path d="M 11197 670240 l 0 -3561 l 1240 0 l 0 3561 l -1240 0 m 139 -225 l 963 0 l 0 -3109 l -963 0 l 0 3109 Z M 12686 670240 l 0 -3561 l 1240 0 l 0 3561 l -1240 0 m 139 -225 l 963 0 l 0 -3109 l -963 0 l 0 3109 Z M 14174 670240 l 0 -3561 l 1240 0 l 0 3561 l -1240 0 m 139 -225 l 963 0 l 0 -3109 l -963 0 l 0 3109 Z" class="C3" /><path d="M 16451 670240 l 0 -3561 l 1240 0 l 0 3561 l -1240 0 m 139 -225 l 963 0 l 0 -3109 l -963 0 l 0 3109 Z M 17940 670240 l 0 -3561 l 1240 0 l 0 3561 l -1240 0 m 139 -225 l 963 0 l 0 -3109 l -963 0 l 0 3109 Z M 19428 670240 l 0 -3561 l 1240 0 l 0 3561 l -1240 0 m 139 -225 l 963 0 l 0 -3109 l -963 0 l 0 3109 Z" class="C3" /><path d="M 4732 659502 l 0 -3561 l 1413 0 l 0 3561 l -1413 0 m 159 -225 l 1097 0 l 0 -3109 l -1097 0 l 0 3109 Z M 6428 659502 l 0 -3561 l 1413 0 l 0 3561 l -1413 0 m 159 -225 l 1097 0 l 0 -3109 l -1097 0 l 0 3109 Z M 8124 659502 l 0 -3561 l 1413 0 l 0 3561 l -1413 0 m 159 -225 l 1097 0 l 0 -3109 l -1097 0 l 0 3109 Z M 9821 659502 l 0 -3561 l 1413 0 l 0 3561 l -1413 0 m 159 -225 l 1097 0 l 0 -3109 l -1097 0 l 0 3109 Z M 11517 659502 l 0 -3561 l 1413 0 l 0 3561 l -1413 0 m 159 -225 l 1097 0 l 0 -3109 l -1097 0 l 0 3109 Z M 13213 659502 l 0 -3561 l 1413 0 l 0 3561 l -1413 0 m 159 -225 l 1097 0 l 0 -3109 l -1097 0 l 0 3109 Z M 14909 659502 l 0 -3561 l 1413 0 l 0 3561 l -1413 0 m 159 -225 l 1097 0 l 0 -3109 l -1097 0 l 0 3109 Z M 16605 659502 l 0 -3561 l 1413 0 l 0 3561 l -1413 0 m 159 -225 l 1097 0 l 0 -3109 l -1097 0 l 0 3109 Z M 18302 659502 l 0 -3561 l 1413 0 l 0 3561 l -1413 0 m 159 -225 l 1097 0 l 0 -3109 l -1097 0 l 0 3109 Z" class="C3" /><path d="M 2607 626638 l 0 -3561 l 1413 0 l 0 3561 l -1413 0 m 159 -225 l 1097 0 l 0 -3109 l -1097 0 l 0 3109 Z M 4304 626638 l 0 -3561 l 1413 0 l 0 3561 l -1413 0 m 159 -225 l 1097 0 l 0 -3109 l -1097 0 l 0 3109 Z M 6000 626638 l 0 -3561 l 1413 0 l 0 3561 l -1413 0 m 159 -225 l 1097 0 l 0 -3109 l -1097 0 l 0 3109 Z M 8432 622861 q -185 453 -275 897 q -90 444 -90 899 q 0 455 90 902 q 90 447 274 898 l -221 0 q -207 -463 -310 -911 q -103 -448 -103 -889 q 0 -440 102 -885 q 102 -446 311 -911 l 221 0 Z M 8799 626638 l 0 -3561 l 1413 0 l 0 3561 l -1413 0 m 159 -225 l 1097 0 l 0 -3109 l -1097 0 l 0 3109 Z M 10580 622861 l 221 0 q 207 465 310 911 q 103 446 103 885 q 0 442 -103 889 q -103 448 -310 911 l -221 0 q 184 -452 274 -898 q 90 -447 90 -902 q 0 -455 -90 -899 q -90 -444 -274 -897 Z M 11598 626638 l 0 -3561 l 1413 0 l 0 3561 l -1413 0 m 159 -225 l 1097 0 l 0 -3109 l -1097 0 l 0 3109 Z M 13294 626638 l 0 -3561 l 1413 0 l 0 3561 l -1413 0 m 159 -225 l 1097 0 l 0 -3109 l -1097 0 l 0 3109 Z M 14990 626638 l 0 -3561 l 1413 0 l 0 3561 l -1413 0 m 159 -225 l 1097 0 l 0 -3109 l -1097 0 l 0 3109 Z M 16686 626638 l 0 -3561 l 1413 0 l 0 3561 l -1413 0 m 159 -225 l 1097 0 l 0 -3109 l -1097 0 l 0 3109 Z M 18382 626638 l 0 -3561 l 1413 0 l 0 3561 l -1413 0 m 159 -225 l 1097 0 l 0 -3109 l -1097 0 l 0 3109 Z M 20079 626638 l 0 -3561 l 1413 0 l 0 3561 l -1413 0 m 159 -225 l 1097 0 l 0 -3109 l -1097 0 l 0 3109 Z M 21775 626638 l 0 -3561 l 1413 0 l 0 3561 l -1413 0 m 159 -225 l 1097 0 l 0 -3109 l -1097 0 l 0 3109 Z M 23471 626638 l 0 -3561 l 1413 0 l 0 3561 l -1413 0 m 159 -225 l 1097 0 l 0 -3109 l -1097 0 l 0 3109 Z" class="C3" /><path d="M 6955 637656 l 0 -3561 l 1144 0 l 0 3561 l -1144 0 m 128 -225 l 888 0 l 0 -3109 l -888 0 l 0 3109 Z M 8328 637656 l 0 -3561 l 1144 0 l 0 3561 l -1144 0 m 128 -225 l 888 0 l 0 -3109 l -888 0 l 0 3109 Z M 9702 637656 l 0 -3561 l 1144 0 l 0 3561 l -1144 0 m 128 -225 l 888 0 l 0 -3109 l -888 0 l 0 3109 Z" class="C3" /><path d="M 13984 637656 l 0 -3561 l 1144 0 l 0 3561 l -1144 0 m 128 -225 l 888 0 l 0 -3109 l -888 0 l 0 3109 Z" class="C3" /><path d="M 6955 648622 l 0 -3561 l 1144 0 l 0 3561 l -1144 0 m 128 -225 l 888 0 l 0 -3109 l -888 0 l 0 3109 Z M 8328 648622 l 0 -3561 l 1144 0 l 0 3561 l -1144 0 m 128 -225 l 888 0 l 0 -3109 l -888 0 l 0 3109 Z M 9702 648622 l 0 -3561 l 1144 0 l 0 3561 l -1144 0 m 128 -225 l 888 0 l 0 -3109 l -888 0 l 0 3109 Z" class="C3" /><path d="M 13984 648622 l 0 -3561 l 1144 0 l 0 3561 l -1144 0 m 128 -225 l 888 0 l 0 -3109 l -888 0 l 0 3109 Z" class="C3" /><path d="M 6587 681376 l 0 -3561 l 1144 0 l 0 3561 l -1144 0 m 128 -225 l 888 0 l 0 -3109 l -888 0 l 0 3109 Z" class="C3" /><path d="M 10869 681376 l 0 -3561 l 1144 0 l 0 3561 l -1144 0 m 128 -225 l 888 0 l 0 -3109 l -888 0 l 0 3109 Z M 12242 681376 l 0 -3561 l 1144 0 l 0 3561 l -1144 0 m 128 -225 l 888 0 l 0 -3109 l -888 0 l 0 3109 Z M 13616 681376 l 0 -3561 l 1144 0 l 0 3561 l -1144 0 m 128 -225 l 888 0 l 0 -3109 l -888 0 l 0 3109 Z" class="C3" /><path d="M 5214 692275 l 0 -3561 l 1144 0 l 0 3561 l -1144 0 m 128 -225 l 888 0 l 0 -3109 l -888 0 l 0 3109 Z M 6587 692275 l 0 -3561 l 1144 0 l 0 3561 l -1144 0 m 128 -225 l 888 0 l 0 -3109 l -888 0 l 0 3109 Z M 7960 692275 l 0 -3561 l 1144 0 l 0 3561 l -1144 0 m 128 -225 l 888 0 l 0 -3109 l -888 0 l 0 3109 Z" class="C3" /><path d="M 12242 692275 l 0 -3561 l 1144 0 l 0 3561 l -1144 0 m 128 -225 l 888 0 l 0 -3109 l -888 0 l 0 3109 Z M 13616 692275 l 0 -3561 l 1144 0 l 0 3561 l -1144 0 m 128 -225 l 888 0 l 0 -3109 l -888 0 l 0 3109 Z M 14989 692275 l 0 -3561 l 1144 0 l 0 3561 l -1144 0 m 128 -225 l 888 0 l 0 -3109 l -888 0 l 0 3109 Z" class="C3" /><path d="M 3893 615634 l 0 -3561 l 1240 0 l 0 3561 l -1240 0 m 139 -225 l 963 0 l 0 -3109 l -963 0 l 0 3109 Z M 5382 615634 l 0 -3561 l 1240 0 l 0 3561 l -1240 0 m 139 -225 l 963 0 l 0 -3109 l -963 0 l 0 3109 Z M 6870 615634 l 0 -3561 l 1240 0 l 0 3561 l -1240 0 m 139 -225 l 963 0 l 0 -3109 l -963 0 l 0 3109 Z" class="C3" /><path d="M 9147 615634 l 0 -3561 l 1240 0 l 0 3561 l -1240 0 m 139 -225 l 963 0 l 0 -3109 l -963 0 l 0 3109 Z M 10636 615634 l 0 -3561 l 1240 0 l 0 3561 l -1240 0 m 139 -225 l 963 0 l 0 -3109 l -963 0 l 0 3109 Z M 12124 615634 l 0 -3561 l 1240 0 l 0 3561 l -1240 0 m 139 -225 l 963 0 l 0 -3109 l -963 0 l 0 3109 Z" class="C3" /><path d="M 14401 615634 l 0 -3561 l 1240 0 l 0 3561 l -1240 0 m 139 -225 l 963 0 l 0 -3109 l -963 0 l 0 3109 Z M 15890 615634 l 0 -3561 l 1240 0 l 0 3561 l -1240 0 m 139 -225 l 963 0 l 0 -3109 l -963 0 l 0 3109 Z M 17378 615634 l 0 -3561 l 1240 0 l 0 3561 l -1240 0 m 139 -225 l 963 0 l 0 -3109 l -963 0 l 0 3109 Z" class="C3" /><path d="M 19655 615634 l 0 -3561 l 1240 0 l 0 3561 l -1240 0 m 139 -225 l 963 0 l 0 -3109 l -963 0 l 0 3109 Z M 21144 615634 l 0 -3561 l 1240 0 l 0 3561 l -1240 0 m 139 -225 l 963 0 l 0 -3109 l -963 0 l 0 3109 Z M 22632 615634 l 0 -3561 l 1240 0 l 0 3561 l -1240 0 m 139 -225 l 963 0 l 0 -3109 l -963 0 l 0 3109 Z" class="C3" /><path d="M 951235 697360 l 0 -3561 l 1413 0 l 0 3561 l -1413 0 m 159 -225 l 1097 0 l 0 -3109 l -1097 0 l 0 3109 Z M 952931 697360 l 0 -3561 l 1413 0 l 0 3561 l -1413 0 m 159 -225 l 1097 0 l 0 -3109 l -1097 0 l 0 3109 Z M 954628 697360 l 0 -3561 l 1413 0 l 0 3561 l -1413 0 m 159 -225 l 1097 0 l 0 -3109 l -1097 0 l 0 3109 Z M 956324 697360 l 0 -3561 l 1413 0 l 0 3561 l -1413 0 m 159 -225 l 1097 0 l 0 -3109 l -1097 0 l 0 3109 Z M 958020 697360 l 0 -3561 l 1413 0 l 0 3561 l -1413 0 m 159 -225 l 1097 0 l 0 -3109 l -1097 0 l 0 3109 Z" class="C3" /><path d="M 931864 697360 l 0 -3561 l 1413 0 l 0 3561 l -1413 0 m 159 -225 l 1097 0 l 0 -3109 l -1097 0 l 0 3109 Z M 933561 697360 l 0 -3561 l 1413 0 l 0 3561 l -1413 0 m 159 -225 l 1097 0 l 0 -3109 l -1097 0 l 0 3109 Z M 935257 697360 l 0 -3561 l 1413 0 l 0 3561 l -1413 0 m 159 -225 l 1097 0 l 0 -3109 l -1097 0 l 0 3109 Z" class="C3" /><path d="M 943968 680356 l 973 0 l 0 335 l -1308 0 l 0 -335 q 159 -235 433 -630 q 274 -395 344 -510 q 134 -215 187 -364 q 53 -149 53 -293 q 0 -235 -115 -382 q -115 -148 -300 -148 q -131 0 -277 65 q -146 65 -311 197 l 0 -402 q 168 -97 315 -146 q 146 -49 268 -49 q 320 0 511 229 q 190 229 190 611 q 0 181 -48 344 q -48 163 -173 383 q -35 57 -219 330 q -185 273 -522 764 Z M 945555 680191 l 291 0 l 0 501 l -291 0 l 0 -501 m 0 -1587 l 291 0 l 0 501 l -291 0 l 0 -501 Z M 946527 680356 l 455 0 l 0 -2246 l -495 142 l 0 -363 l 493 -142 l 279 0 l 0 2608 l 455 0 l 0 335 l -1187 0 l 0 -335 Z" class="C3" /><path d="M 842412 685864 l 0 -3561 l 1413 0 l 0 3561 l -1413 0 m 159 -225 l 1097 0 l 0 -3109 l -1097 0 l 0 3109 Z M 844108 685864 l 0 -3561 l 1413 0 l 0 3561 l -1413 0 m 159 -225 l 1097 0 l 0 -3109 l -1097 0 l 0 3109 Z M 845804 685864 l 0 -3561 l 1413 0 l 0 3561 l -1413 0 m 159 -225 l 1097 0 l 0 -3109 l -1097 0 l 0 3109 Z M 847501 685864 l 0 -3561 l 1413 0 l 0 3561 l -1413 0 m 159 -225 l 1097 0 l 0 -3109 l -1097 0 l 0 3109 Z" class="C3" /><path d="M 836533 691774 l 0 -3561 l 1413 0 l 0 3561 l -1413 0 m 159 -225 l 1097 0 l 0 -3109 l -1097 0 l 0 3109 Z M 838229 691774 l 0 -3561 l 1413 0 l 0 3561 l -1413 0 m 159 -225 l 1097 0 l 0 -3109 l -1097 0 l 0 3109 Z M 839925 691774 l 0 -3561 l 1413 0 l 0 3561 l -1413 0 m 159 -225 l 1097 0 l 0 -3109 l -1097 0 l 0 3109 Z M 841621 691774 l 0 -3561 l 1413 0 l 0 3561 l -1413 0 m 159 -225 l 1097 0 l 0 -3109 l -1097 0 l 0 3109 Z M 843317 691774 l 0 -3561 l 1413 0 l 0 3561 l -1413 0 m 159 -225 l 1097 0 l 0 -3109 l -1097 0 l 0 3109 Z M 845014 691774 l 0 -3561 l 1413 0 l 0 3561 l -1413 0 m 159 -225 l 1097 0 l 0 -3109 l -1097 0 l 0 3109 Z M 846710 691774 l 0 -3561 l 1413 0 l 0 3561 l -1413 0 m 159 -225 l 1097 0 l 0 -3109 l -1097 0 l 0 3109 Z M 848406 691774 l 0 -3561 l 1413 0 l 0 3561 l -1413 0 m 159 -225 l 1097 0 l 0 -3109 l -1097 0 l 0 3109 Z M 850102 691774 l 0 -3561 l 1413 0 l 0 3561 l -1413 0 m 159 -225 l 1097 0 l 0 -3109 l -1097 0 l 0 3109 Z M 851798 691774 l 0 -3561 l 1413 0 l 0 3561 l -1413 0 m 159 -225 l 1097 0 l 0 -3109 l -1097 0 l 0 3109 Z M 853495 691774 l 0 -3561 l 1413 0 l 0 3561 l -1413 0 m 159 -225 l 1097 0 l 0 -3109 l -1097 0 l 0 3109 Z" class="C3" /><path d="M 21776 704017 l 455 0 l 0 -2246 l -495 142 l 0 -363 l 493 -142 l 279 0 l 0 2608 l 455 0 l 0 335 l -1187 0 l 0 -335 Z" class="C3" /><path d="M 64861 704017 l 973 0 l 0 335 l -1308 0 l 0 -335 q 159 -235 433 -630 q 274 -395 344 -510 q 134 -215 187 -364 q 53 -149 53 -293 q 0 -235 -115 -382 q -115 -148 -300 -148 q -131 0 -277 65 q -146 65 -311 197 l 0 -402 q 168 -97 315 -146 q 146 -49 268 -49 q 320 0 511 229 q 190 229 190 611 q 0 181 -48 344 q -48 163 -173 383 q -35 57 -219 330 q -185 273 -522 764 Z" class="C3" /><path d="M 947515 704017 l 973 0 l 0 335 l -1308 0 l 0 -335 q 159 -235 433 -630 q 274 -395 344 -510 q 134 -215 187 -364 q 53 -149 53 -293 q 0 -235 -115 -382 q -115 -148 -300 -148 q -131 0 -277 65 q -146 65 -311 197 l 0 -402 q 168 -97 315 -146 q 146 -49 268 -49 q 320 0 511 229 q 190 229 190 611 q 0 181 -48 344 q -48 163 -173 383 q -35 57 -219 330 q -185 273 -522 764 Z M 949918 702765 q 200 61 313 254 q 112 193 112 477 q 0 436 -210 674 q -210 239 -596 239 q -130 0 -267 -36 q -137 -36 -284 -109 l 0 -384 q 116 97 254 146 q 138 49 288 49 q 262 0 400 -148 q 137 -148 137 -430 q 0 -260 -128 -407 q -128 -147 -355 -147 l -240 0 l 0 -327 l 251 0 q 206 0 315 -117 q 109 -117 109 -338 q 0 -227 -112 -348 q -112 -121 -322 -121 q -115 0 -246 35 q -131 35 -288 110 l 0 -355 q 159 -63 297 -95 q 139 -32 262 -32 q 317 0 502 206 q 185 206 185 557 q 0 244 -98 413 q -98 169 -279 234 Z" class="C3" /><path d="M 905463 704017 l 973 0 l 0 335 l -1308 0 l 0 -335 q 159 -235 433 -630 q 274 -395 344 -510 q 134 -215 187 -364 q 53 -149 53 -293 q 0 -235 -115 -382 q -115 -148 -300 -148 q -131 0 -277 65 q -146 65 -311 197 l 0 -402 q 168 -97 315 -146 q 146 -49 268 -49 q 320 0 511 229 q 190 229 190 611 q 0 181 -48 344 q -48 163 -173 383 q -35 57 -219 330 q -185 273 -522 764 Z M 907261 704017 l 973 0 l 0 335 l -1308 0 l 0 -335 q 159 -235 433 -630 q 274 -395 344 -510 q 134 -215 187 -364 q 53 -149 53 -293 q 0 -235 -115 -382 q -115 -148 -300 -148 q -131 0 -277 65 q -146 65 -311 197 l 0 -402 q 168 -97 315 -146 q 146 -49 268 -49 q 320 0 511 229 q 190 229 190 611 q 0 181 -48 344 q -48 163 -173 383 q -35 57 -219 330 q -185 273 -522 764 Z" class="C3" /><path d="M 863411 704017 l 973 0 l 0 335 l -1308 0 l 0 -335 q 159 -235 433 -630 q 274 -395 344 -510 q 134 -215 187 -364 q 53 -149 53 -293 q 0 -235 -115 -382 q -115 -148 -300 -148 q -131 0 -277 65 q -146 65 -311 197 l 0 -402 q 168 -97 315 -146 q 146 -49 268 -49 q 320 0 511 229 q 190 229 190 611 q 0 181 -48 344 q -48 163 -173 383 q -35 57 -219 330 q -185 273 -522 764 Z M 865017 704017 l 455 0 l 0 -2246 l -495 142 l 0 -363 l 493 -142 l 279 0 l 0 2608 l 455 0 l 0 335 l -1187 0 l 0 -335 Z" class="C3" /><path d="M 821359 704017 l 973 0 l 0 335 l -1308 0 l 0 -335 q 159 -235 433 -630 q 274 -395 344 -510 q 134 -215 187 -364 q 53 -149 53 -293 q 0 -235 -115 -382 q -115 -148 -300 -148 q -131 0 -277 65 q -146 65 -311 197 l 0 -402 q 168 -97 315 -146 q 146 -49 268 -49 q 320 0 511 229 q 190 229 190 611 q 0 181 -48 344 q -48 163 -173 383 q -35 57 -219 330 q -185 273 -522 764 Z M 823513 701671 q -215 0 -324 303 q -108 303 -108 910 q 0 605 108 908 q 108 303 324 303 q 217 0 325 -303 q 108 -303 108 -908 q 0 -607 -108 -910 q -108 -303 -325 -303 m 0 -315 q 346 0 529 391 q 183 391 183 1137 q 0 743 -183 1135 q -183 391 -529 391 q -346 0 -529 -391 q -183 -391 -183 -1135 q 0 -745 183 -1137 q 183 -391 529 -391 Z" class="C3" /><path d="M 779117 704017 l 455 0 l 0 -2246 l -495 142 l 0 -363 l 493 -142 l 279 0 l 0 2608 l 455 0 l 0 335 l -1187 0 l 0 -335 Z M 780875 704291 l 0 -363 q 105 71 213 108 q 108 37 211 37 q 276 0 422 -265 q 146 -265 166 -805 q -80 170 -203 260 q -123 91 -272 91 q -309 0 -489 -267 q -180 -267 -180 -730 q 0 -453 188 -728 q 188 -274 500 -274 q 357 0 546 391 q 188 391 188 1137 q 0 696 -231 1111 q -231 415 -622 415 q -105 0 -213 -30 q -108 -30 -224 -89 m 555 -1248 q 188 0 297 -183 q 110 -183 110 -503 q 0 -317 -110 -502 q -110 -184 -297 -184 q -188 0 -297 184 q -110 184 -110 502 q 0 319 110 503 q 110 183 297 183 Z" class="C3" /><path d="M 737065 704017 l 455 0 l 0 -2246 l -495 142 l 0 -363 l 493 -142 l 279 0 l 0 2608 l 455 0 l 0 335 l -1187 0 l 0 -335 Z M 739411 702954 q -199 0 -313 152 q -114 152 -114 418 q 0 266 114 418 q 114 152 313 152 q 199 0 313 -153 q 115 -153 115 -417 q 0 -266 -114 -418 q -114 -152 -314 -152 m -279 -170 q -179 -63 -279 -239 q -100 -175 -100 -428 q 0 -353 176 -558 q 176 -205 482 -205 q 308 0 483 205 q 175 205 175 558 q 0 252 -100 428 q -100 175 -278 239 q 202 67 314 262 q 112 195 112 477 q 0 428 -183 657 q -183 229 -524 229 q -341 0 -524 -229 q -183 -229 -183 -657 q 0 -282 113 -477 q 113 -195 315 -262 m -102 -629 q 0 229 100 357 q 100 128 281 128 q 179 0 281 -128 q 101 -128 101 -357 q 0 -229 -101 -357 q -101 -128 -281 -128 q -181 0 -281 128 q -100 128 -100 357 Z" class="C3" /><path d="M 695013 704017 l 455 0 l 0 -2246 l -495 142 l 0 -363 l 493 -142 l 279 0 l 0 2608 l 455 0 l 0 335 l -1187 0 l 0 -335 Z M 696692 701408 l 1325 0 l 0 170 l -748 2774 l -291 0 l 704 -2608 l -990 0 l 0 -335 Z" class="C3" /><path d="M 652960 704017 l 455 0 l 0 -2246 l -495 142 l 0 -363 l 493 -142 l 279 0 l 0 2608 l 455 0 l 0 335 l -1187 0 l 0 -335 Z M 655341 702721 q -188 0 -297 183 q -110 183 -110 503 q 0 317 110 502 q 110 184 297 184 q 188 0 297 -184 q 110 -184 110 -502 q 0 -319 -110 -503 q -110 -183 -297 -183 m 553 -1248 l 0 363 q -105 -71 -212 -108 q -107 -37 -212 -37 q -276 0 -422 266 q -146 266 -166 804 q 81 -172 204 -263 q 123 -92 271 -92 q 311 0 491 269 q 180 269 180 732 q 0 453 -188 728 q -188 274 -500 274 q -357 0 -547 -391 q -189 -391 -189 -1135 q 0 -698 232 -1113 q 232 -415 622 -415 q 105 0 212 30 q 107 30 223 89 Z" class="C3" /><path d="M 610906 704017 l 455 0 l 0 -2246 l -495 142 l 0 -363 l 493 -142 l 279 0 l 0 2608 l 455 0 l 0 335 l -1187 0 l 0 -335 Z M 612659 701408 l 1094 0 l 0 335 l -839 0 l 0 722 q 61 -30 121 -44 q 61 -15 121 -15 q 345 0 547 270 q 202 270 202 731 q 0 475 -207 738 q -207 263 -584 263 q -130 0 -264 -32 q -135 -32 -278 -95 l 0 -400 q 124 97 257 144 q 132 47 280 47 q 239 0 378 -179 q 139 -179 139 -487 q 0 -308 -139 -487 q -139 -179 -378 -179 q -112 0 -223 35 q -111 35 -227 110 l 0 -1479 Z" class="C3" /><path d="M 568854 704017 l 455 0 l 0 -2246 l -495 142 l 0 -363 l 493 -142 l 279 0 l 0 2608 l 455 0 l 0 335 l -1187 0 l 0 -335 Z M 571370 701755 l -704 1571 l 704 0 l 0 -1571 m -73 -347 l 351 0 l 0 1918 l 294 0 l 0 331 l -294 0 l 0 694 l -277 0 l 0 -694 l -930 0 l 0 -384 l 857 -1865 Z" class="C3" /><path d="M 526802 704017 l 455 0 l 0 -2246 l -495 142 l 0 -363 l 493 -142 l 279 0 l 0 2608 l 455 0 l 0 335 l -1187 0 l 0 -335 Z M 529397 702765 q 200 61 313 254 q 112 193 112 477 q 0 436 -210 674 q -210 239 -596 239 q -130 0 -267 -36 q -137 -36 -284 -109 l 0 -384 q 116 97 254 146 q 138 49 288 49 q 262 0 400 -148 q 137 -148 137 -430 q 0 -260 -128 -407 q -128 -147 -355 -147 l -240 0 l 0 -327 l 251 0 q 206 0 315 -117 q 109 -117 109 -338 q 0 -227 -112 -348 q -112 -121 -322 -121 q -115 0 -246 35 q -131 35 -288 110 l 0 -355 q 159 -63 297 -95 q 139 -32 262 -32 q 317 0 502 206 q 185 206 185 557 q 0 244 -98 413 q -98 169 -279 234 Z" class="C3" /><path d="M 484750 704017 l 455 0 l 0 -2246 l -495 142 l 0 -363 l 493 -142 l 279 0 l 0 2608 l 455 0 l 0 335 l -1187 0 l 0 -335 Z M 486740 704017 l 973 0 l 0 335 l -1308 0 l 0 -335 q 159 -235 433 -630 q 274 -395 344 -510 q 134 -215 187 -364 q 53 -149 53 -293 q 0 -235 -115 -382 q -115 -148 -300 -148 q -131 0 -277 65 q -146 65 -311 197 l 0 -402 q 168 -97 315 -146 q 146 -49 268 -49 q 320 0 511 229 q 190 229 190 611 q 0 181 -48 344 q -48 163 -173 383 q -35 57 -219 330 q -185 273 -522 764 Z" class="C3" /><path d="M 442698 704017 l 455 0 l 0 -2246 l -495 142 l 0 -363 l 493 -142 l 279 0 l 0 2608 l 455 0 l 0 335 l -1187 0 l 0 -335 Z M 444496 704017 l 455 0 l 0 -2246 l -495 142 l 0 -363 l 493 -142 l 279 0 l 0 2608 l 455 0 l 0 335 l -1187 0 l 0 -335 Z" class="C3" /><path d="M 400645 704017 l 455 0 l 0 -2246 l -495 142 l 0 -363 l 493 -142 l 279 0 l 0 2608 l 455 0 l 0 335 l -1187 0 l 0 -335 Z M 402992 701671 q -215 0 -324 303 q -108 303 -108 910 q 0 605 108 908 q 108 303 324 303 q 217 0 325 -303 q 108 -303 108 -908 q 0 -607 -108 -910 q -108 -303 -325 -303 m 0 -315 q 346 0 529 391 q 183 391 183 1137 q 0 743 -183 1135 q -183 391 -529 391 q -346 0 -529 -391 q -183 -391 -183 -1135 q 0 -745 183 -1137 q 183 -391 529 -391 Z" class="C3" /><path d="M 358997 704291 l 0 -363 q 105 71 213 108 q 108 37 211 37 q 276 0 422 -265 q 146 -265 166 -805 q -80 170 -203 260 q -123 91 -272 91 q -309 0 -489 -267 q -180 -267 -180 -730 q 0 -453 188 -728 q 188 -274 500 -274 q 357 0 546 391 q 188 391 188 1137 q 0 696 -231 1111 q -231 415 -622 415 q -105 0 -213 -30 q -108 -30 -224 -89 m 555 -1248 q 188 0 297 -183 q 110 -183 110 -503 q 0 -317 -110 -502 q -110 -184 -297 -184 q -188 0 -297 184 q -110 184 -110 502 q 0 319 110 503 q 110 183 297 183 Z" class="C3" /><path d="M 317532 702954 q -199 0 -313 152 q -114 152 -114 418 q 0 266 114 418 q 114 152 313 152 q 199 0 313 -153 q 115 -153 115 -417 q 0 -266 -114 -418 q -114 -152 -314 -152 m -279 -170 q -179 -63 -279 -239 q -100 -175 -100 -428 q 0 -353 176 -558 q 176 -205 482 -205 q 308 0 483 205 q 175 205 175 558 q 0 252 -100 428 q -100 175 -278 239 q 202 67 314 262 q 112 195 112 477 q 0 428 -183 657 q -183 229 -524 229 q -341 0 -524 -229 q -183 -229 -183 -657 q 0 -282 113 -477 q 113 -195 315 -262 m -102 -629 q 0 229 100 357 q 100 128 281 128 q 179 0 281 -128 q 101 -128 101 -357 q 0 -229 -101 -357 q -101 -128 -281 -128 q -181 0 -281 128 q -100 128 -100 357 Z" class="C3" /><path d="M 274814 701408 l 1325 0 l 0 170 l -748 2774 l -291 0 l 704 -2608 l -990 0 l 0 -335 Z" class="C3" /><path d="M 233463 702721 q -188 0 -297 183 q -110 183 -110 503 q 0 317 110 502 q 110 184 297 184 q 188 0 297 -184 q 110 -184 110 -502 q 0 -319 -110 -503 q -110 -183 -297 -183 m 553 -1248 l 0 363 q -105 -71 -212 -108 q -107 -37 -212 -37 q -276 0 -422 266 q -146 266 -166 804 q 81 -172 204 -263 q 123 -92 271 -92 q 311 0 491 269 q 180 269 180 732 q 0 453 -188 728 q -188 274 -500 274 q -357 0 -547 -391 q -189 -391 -189 -1135 q 0 -698 232 -1113 q 232 -415 622 -415 q 105 0 212 30 q 107 30 223 89 Z" class="C3" /><path d="M 190780 701408 l 1094 0 l 0 335 l -839 0 l 0 722 q 61 -30 121 -44 q 61 -15 121 -15 q 345 0 547 270 q 202 270 202 731 q 0 475 -207 738 q -207 263 -584 263 q -130 0 -264 -32 q -135 -32 -278 -95 l 0 -400 q 124 97 257 144 q 132 47 280 47 q 239 0 378 -179 q 139 -179 139 -487 q 0 -308 -139 -487 q -139 -179 -378 -179 q -112 0 -223 35 q -111 35 -227 110 l 0 -1479 Z" class="C3" /><path d="M 149492 701755 l -704 1571 l 704 0 l 0 -1571 m -73 -347 l 351 0 l 0 1918 l 294 0 l 0 331 l -294 0 l 0 694 l -277 0 l 0 -694 l -930 0 l 0 -384 l 857 -1865 Z" class="C3" /><path d="M 107518 702765 q 200 61 313 254 q 112 193 112 477 q 0 436 -210 674 q -210 239 -596 239 q -130 0 -267 -36 q -137 -36 -284 -109 l 0 -384 q 116 97 254 146 q 138 49 288 49 q 262 0 400 -148 q 137 -148 137 -430 q 0 -260 -128 -407 q -128 -147 -355 -147 l -240 0 l 0 -327 l 251 0 q 206 0 315 -117 q 109 -117 109 -338 q 0 -227 -112 -348 q -112 -121 -322 -121 q -115 0 -246 35 q -131 35 -288 110 l 0 -355 q 159 -63 297 -95 q 139 -32 262 -32 q 317 0 502 206 q 185 206 185 557 q 0 244 -98 413 q -98 169 -279 234 Z" class="C3" /><path d="M 984101 704017 l 973 0 l 0 335 l -1308 0 l 0 -335 q 159 -235 433 -630 q 274 -395 344 -510 q 134 -215 187 -364 q 53 -149 53 -293 q 0 -235 -115 -382 q -115 -148 -300 -148 q -131 0 -277 65 q -146 65 -311 197 l 0 -402 q 168 -97 315 -146 q 146 -49 268 -49 q 320 0 511 229 q 190 229 190 611 q 0 181 -48 344 q -48 163 -173 383 q -35 57 -219 330 q -185 273 -522 764 Z M 986425 701755 l -704 1571 l 704 0 l 0 -1571 m -73 -347 l 351 0 l 0 1918 l 294 0 l 0 331 l -294 0 l 0 694 l -277 0 l 0 -694 l -930 0 l 0 -384 l 857 -1865 Z" class="C3" /><path d="M 947515 5110 l 973 0 l 0 335 l -1308 0 l 0 -335 q 159 -235 433 -630 q 274 -395 344 -510 q 134 -215 187 -364 q 53 -149 53 -293 q 0 -235 -115 -382 q -115 -148 -300 -148 q -131 0 -277 65 q -146 65 -311 197 l 0 -402 q 168 -97 315 -146 q 146 -49 268 -49 q 320 0 511 229 q 190 229 190 611 q 0 181 -48 344 q -48 163 -173 383 q -35 57 -219 330 q -185 273 -522 764 Z M 949918 3858 q 200 61 313 254 q 112 193 112 477 q 0 436 -210 674 q -210 239 -596 239 q -130 0 -267 -36 q -137 -36 -284 -109 l 0 -384 q 116 97 254 146 q 138 49 288 49 q 262 0 400 -148 q 137 -148 137 -430 q 0 -260 -128 -407 q -128 -147 -355 -147 l -240 0 l 0 -327 l 251 0 q 206 0 315 -117 q 109 -117 109 -338 q 0 -227 -112 -348 q -112 -121 -322 -121 q -115 0 -246 35 q -131 35 -288 110 l 0 -355 q 159 -63 297 -95 q 139 -32 262 -32 q 317 0 502 206 q 185 206 185 557 q 0 244 -98 413 q -98 169 -279 234 Z" class="C3" /><path d="M 737065 5110 l 455 0 l 0 -2246 l -495 142 l 0 -363 l 493 -142 l 279 0 l 0 2608 l 455 0 l 0 335 l -1187 0 l 0 -335 Z M 739411 4047 q -199 0 -313 152 q -114 152 -114 418 q 0 266 114 418 q 114 152 313 152 q 199 0 313 -153 q 115 -153 115 -417 q 0 -266 -114 -418 q -114 -152 -314 -152 m -279 -170 q -179 -63 -279 -239 q -100 -175 -100 -428 q 0 -353 176 -558 q 176 -205 482 -205 q 308 0 483 205 q 175 205 175 558 q 0 252 -100 428 q -100 175 -278 239 q 202 67 314 262 q 112 195 112 477 q 0 428 -183 657 q -183 229 -524 229 q -341 0 -524 -229 q -183 -229 -183 -657 q 0 -282 113 -477 q 113 -195 315 -262 m -102 -629 q 0 229 100 357 q 100 128 281 128 q 179 0 281 -128 q 101 -128 101 -357 q 0 -229 -101 -357 q -101 -128 -281 -128 q -181 0 -281 128 q -100 128 -100 357 Z" class="C3" /><path d="M 400645 5110 l 455 0 l 0 -2246 l -495 142 l 0 -363 l 493 -142 l 279 0 l 0 2608 l 455 0 l 0 335 l -1187 0 l 0 -335 Z M 402992 2764 q -215 0 -324 303 q -108 303 -108 910 q 0 605 108 908 q 108 303 324 303 q 217 0 325 -303 q 108 -303 108 -908 q 0 -607 -108 -910 q -108 -303 -325 -303 m 0 -315 q 346 0 529 391 q 183 391 183 1137 q 0 743 -183 1135 q -183 391 -529 391 q -346 0 -529 -391 q -183 -391 -183 -1135 q 0 -745 183 -1137 q 183 -391 529 -391 Z" class="C3" /><path d="M 695013 5110 l 455 0 l 0 -2246 l -495 142 l 0 -363 l 493 -142 l 279 0 l 0 2608 l 455 0 l 0 335 l -1187 0 l 0 -335 Z M 696692 2502 l 1325 0 l 0 170 l -748 2774 l -291 0 l 704 -2608 l -990 0 l 0 -335 Z" class="C3" /><path d="M 317532 4047 q -199 0 -313 152 q -114 152 -114 418 q 0 266 114 418 q 114 152 313 152 q 199 0 313 -153 q 115 -153 115 -417 q 0 -266 -114 -418 q -114 -152 -314 -152 m -279 -170 q -179 -63 -279 -239 q -100 -175 -100 -428 q 0 -353 176 -558 q 176 -205 482 -205 q 308 0 483 205 q 175 205 175 558 q 0 252 -100 428 q -100 175 -278 239 q 202 67 314 262 q 112 195 112 477 q 0 428 -183 657 q -183 229 -524 229 q -341 0 -524 -229 q -183 -229 -183 -657 q 0 -282 113 -477 q 113 -195 315 -262 m -102 -629 q 0 229 100 357 q 100 128 281 128 q 179 0 281 -128 q 101 -128 101 -357 q 0 -229 -101 -357 q -101 -128 -281 -128 q -181 0 -281 128 q -100 128 -100 357 Z" class="C3" /><path d="M 821359 5110 l 973 0 l 0 335 l -1308 0 l 0 -335 q 159 -235 433 -630 q 274 -395 344 -510 q 134 -215 187 -364 q 53 -149 53 -293 q 0 -235 -115 -382 q -115 -148 -300 -148 q -131 0 -277 65 q -146 65 -311 197 l 0 -402 q 168 -97 315 -146 q 146 -49 268 -49 q 320 0 511 229 q 190 229 190 611 q 0 181 -48 344 q -48 163 -173 383 q -35 57 -219 330 q -185 273 -522 764 Z M 823513 2764 q -215 0 -324 303 q -108 303 -108 910 q 0 605 108 908 q 108 303 324 303 q 217 0 325 -303 q 108 -303 108 -908 q 0 -607 -108 -910 q -108 -303 -325 -303 m 0 -315 q 346 0 529 391 q 183 391 183 1137 q 0 743 -183 1135 q -183 391 -529 391 q -346 0 -529 -391 q -183 -391 -183 -1135 q 0 -745 183 -1137 q 183 -391 529 -391 Z" class="C3" /><path d="M 233463 3815 q -188 0 -297 183 q -110 183 -110 503 q 0 317 110 502 q 110 184 297 184 q 188 0 297 -184 q 110 -184 110 -502 q 0 -319 -110 -503 q -110 -183 -297 -183 m 553 -1248 l 0 363 q -105 -71 -212 -108 q -107 -37 -212 -37 q -276 0 -422 266 q -146 266 -166 804 q 81 -172 204 -263 q 123 -92 271 -92 q 311 0 491 269 q 180 269 180 732 q 0 453 -188 728 q -188 274 -500 274 q -357 0 -547 -391 q -189 -391 -189 -1135 q 0 -698 232 -1113 q 232 -415 622 -415 q 105 0 212 30 q 107 30 223 89 Z" class="C3" /><path d="M 21776 5110 l 455 0 l 0 -2246 l -495 142 l 0 -363 l 493 -142 l 279 0 l 0 2608 l 455 0 l 0 335 l -1187 0 l 0 -335 Z" class="C3" /><path d="M 568854 5110 l 455 0 l 0 -2246 l -495 142 l 0 -363 l 493 -142 l 279 0 l 0 2608 l 455 0 l 0 335 l -1187 0 l 0 -335 Z M 571370 2849 l -704 1571 l 704 0 l 0 -1571 m -73 -347 l 351 0 l 0 1918 l 294 0 l 0 331 l -294 0 l 0 694 l -277 0 l 0 -694 l -930 0 l 0 -384 l 857 -1865 Z" class="C3" /><path d="M 149492 2849 l -704 1571 l 704 0 l 0 -1571 m -73 -347 l 351 0 l 0 1918 l 294 0 l 0 331 l -294 0 l 0 694 l -277 0 l 0 -694 l -930 0 l 0 -384 l 857 -1865 Z" class="C3" /><path d="M 484750 5110 l 455 0 l 0 -2246 l -495 142 l 0 -363 l 493 -142 l 279 0 l 0 2608 l 455 0 l 0 335 l -1187 0 l 0 -335 Z M 486740 5110 l 973 0 l 0 335 l -1308 0 l 0 -335 q 159 -235 433 -630 q 274 -395 344 -510 q 134 -215 187 -364 q 53 -149 53 -293 q 0 -235 -115 -382 q -115 -148 -300 -148 q -131 0 -277 65 q -146 65 -311 197 l 0 -402 q 168 -97 315 -146 q 146 -49 268 -49 q 320 0 511 229 q 190 229 190 611 q 0 181 -48 344 q -48 163 -173 383 q -35 57 -219 330 q -185 273 -522 764 Z" class="C3" /><path d="M 64861 5110 l 973 0 l 0 335 l -1308 0 l 0 -335 q 159 -235 433 -630 q 274 -395 344 -510 q 134 -215 187 -364 q 53 -149 53 -293 q 0 -235 -115 -382 q -115 -148 -300 -148 q -131 0 -277 65 q -146 65 -311 197 l 0 -402 q 168 -97 315 -146 q 146 -49 268 -49 q 320 0 511 229 q 190 229 190 611 q 0 181 -48 344 q -48 163 -173 383 q -35 57 -219 330 q -185 273 -522 764 Z" class="C3" /><path d="M 610906 5110 l 455 0 l 0 -2246 l -495 142 l 0 -363 l 493 -142 l 279 0 l 0 2608 l 455 0 l 0 335 l -1187 0 l 0 -335 Z M 612659 2502 l 1094 0 l 0 335 l -839 0 l 0 722 q 61 -30 121 -44 q 61 -15 121 -15 q 345 0 547 270 q 202 270 202 731 q 0 475 -207 738 q -207 263 -584 263 q -130 0 -264 -32 q -135 -32 -278 -95 l 0 -400 q 124 97 257 144 q 132 47 280 47 q 239 0 378 -179 q 139 -179 139 -487 q 0 -308 -139 -487 q -139 -179 -378 -179 q -112 0 -223 35 q -111 35 -227 110 l 0 -1479 Z" class="C3" /><path d="M 442698 5110 l 455 0 l 0 -2246 l -495 142 l 0 -363 l 493 -142 l 279 0 l 0 2608 l 455 0 l 0 335 l -1187 0 l 0 -335 Z M 444496 5110 l 455 0 l 0 -2246 l -495 142 l 0 -363 l 493 -142 l 279 0 l 0 2608 l 455 0 l 0 335 l -1187 0 l 0 -335 Z" class="C3" /><path d="M 358997 5384 l 0 -363 q 105 71 213 108 q 108 37 211 37 q 276 0 422 -265 q 146 -265 166 -805 q -80 170 -203 260 q -123 91 -272 91 q -309 0 -489 -267 q -180 -267 -180 -730 q 0 -453 188 -728 q 188 -274 500 -274 q 357 0 546 391 q 188 391 188 1137 q 0 696 -231 1111 q -231 415 -622 415 q -105 0 -213 -30 q -108 -30 -224 -89 m 555 -1248 q 188 0 297 -183 q 110 -183 110 -503 q 0 -317 -110 -502 q -110 -184 -297 -184 q -188 0 -297 184 q -110 184 -110 502 q 0 319 110 503 q 110 183 297 183 Z" class="C3" /><path d="M 905463 5110 l 973 0 l 0 335 l -1308 0 l 0 -335 q 159 -235 433 -630 q 274 -395 344 -510 q 134 -215 187 -364 q 53 -149 53 -293 q 0 -235 -115 -382 q -115 -148 -300 -148 q -131 0 -277 65 q -146 65 -311 197 l 0 -402 q 168 -97 315 -146 q 146 -49 268 -49 q 320 0 511 229 q 190 229 190 611 q 0 181 -48 344 q -48 163 -173 383 q -35 57 -219 330 q -185 273 -522 764 Z M 907261 5110 l 973 0 l 0 335 l -1308 0 l 0 -335 q 159 -235 433 -630 q 274 -395 344 -510 q 134 -215 187 -364 q 53 -149 53 -293 q 0 -235 -115 -382 q -115 -148 -300 -148 q -131 0 -277 65 q -146 65 -311 197 l 0 -402 q 168 -97 315 -146 q 146 -49 268 -49 q 320 0 511 229 q 190 229 190 611 q 0 181 -48 344 q -48 163 -173 383 q -35 57 -219 330 q -185 273 -522 764 Z" class="C3" /><path d="M 274814 2502 l 1325 0 l 0 170 l -748 2774 l -291 0 l 704 -2608 l -990 0 l 0 -335 Z" class="C3" /><path d="M 779117 5110 l 455 0 l 0 -2246 l -495 142 l 0 -363 l 493 -142 l 279 0 l 0 2608 l 455 0 l 0 335 l -1187 0 l 0 -335 Z M 780875 5384 l 0 -363 q 105 71 213 108 q 108 37 211 37 q 276 0 422 -265 q 146 -265 166 -805 q -80 170 -203 260 q -123 91 -272 91 q -309 0 -489 -267 q -180 -267 -180 -730 q 0 -453 188 -728 q 188 -274 500 -274 q 357 0 546 391 q 188 391 188 1137 q 0 696 -231 1111 q -231 415 -622 415 q -105 0 -213 -30 q -108 -30 -224 -89 m 555 -1248 q 188 0 297 -183 q 110 -183 110 -503 q 0 -317 -110 -502 q -110 -184 -297 -184 q -188 0 -297 184 q -110 184 -110 502 q 0 319 110 503 q 110 183 297 183 Z" class="C3" /><path d="M 526802 5110 l 455 0 l 0 -2246 l -495 142 l 0 -363 l 493 -142 l 279 0 l 0 2608 l 455 0 l 0 335 l -1187 0 l 0 -335 Z M 529397 3858 q 200 61 313 254 q 112 193 112 477 q 0 436 -210 674 q -210 239 -596 239 q -130 0 -267 -36 q -137 -36 -284 -109 l 0 -384 q 116 97 254 146 q 138 49 288 49 q 262 0 400 -148 q 137 -148 137 -430 q 0 -260 -128 -407 q -128 -147 -355 -147 l -240 0 l 0 -327 l 251 0 q 206 0 315 -117 q 109 -117 109 -338 q 0 -227 -112 -348 q -112 -121 -322 -121 q -115 0 -246 35 q -131 35 -288 110 l 0 -355 q 159 -63 297 -95 q 139 -32 262 -32 q 317 0 502 206 q 185 206 185 557 q 0 244 -98 413 q -98 169 -279 234 Z" class="C3" /><path d="M 190780 2502 l 1094 0 l 0 335 l -839 0 l 0 722 q 61 -30 121 -44 q 61 -15 121 -15 q 345 0 547 270 q 202 270 202 731 q 0 475 -207 738 q -207 263 -584 263 q -130 0 -264 -32 q -135 -32 -278 -95 l 0 -400 q 124 97 257 144 q 132 47 280 47 q 239 0 378 -179 q 139 -179 139 -487 q 0 -308 -139 -487 q -139 -179 -378 -179 q -112 0 -223 35 q -111 35 -227 110 l 0 -1479 Z" class="C3" /><path d="M 863411 5110 l 973 0 l 0 335 l -1308 0 l 0 -335 q 159 -235 433 -630 q 274 -395 344 -510 q 134 -215 187 -364 q 53 -149 53 -293 q 0 -235 -115 -382 q -115 -148 -300 -148 q -131 0 -277 65 q -146 65 -311 197 l 0 -402 q 168 -97 315 -146 q 146 -49 268 -49 q 320 0 511 229 q 190 229 190 611 q 0 181 -48 344 q -48 163 -173 383 q -35 57 -219 330 q -185 273 -522 764 Z M 865017 5110 l 455 0 l 0 -2246 l -495 142 l 0 -363 l 493 -142 l 279 0 l 0 2608 l 455 0 l 0 335 l -1187 0 l 0 -335 Z" class="C3" /><path d="M 107518 3858 q 200 61 313 254 q 112 193 112 477 q 0 436 -210 674 q -210 239 -596 239 q -130 0 -267 -36 q -137 -36 -284 -109 l 0 -384 q 116 97 254 146 q 138 49 288 49 q 262 0 400 -148 q 137 -148 137 -430 q 0 -260 -128 -407 q -128 -147 -355 -147 l -240 0 l 0 -327 l 251 0 q 206 0 315 -117 q 109 -117 109 -338 q 0 -227 -112 -348 q -112 -121 -322 -121 q -115 0 -246 35 q -131 35 -288 110 l 0 -355 q 159 -63 297 -95 q 139 -32 262 -32 q 317 0 502 206 q 185 206 185 557 q 0 244 -98 413 q -98 169 -279 234 Z" class="C3" /><path d="M 984101 5110 l 973 0 l 0 335 l -1308 0 l 0 -335 q 159 -235 433 -630 q 274 -395 344 -510 q 134 -215 187 -364 q 53 -149 53 -293 q 0 -235 -115 -382 q -115 -148 -300 -148 q -131 0 -277 65 q -146 65 -311 197 l 0 -402 q 168 -97 315 -146 q 146 -49 268 -49 q 320 0 511 229 q 190 229 190 611 q 0 181 -48 344 q -48 163 -173 383 q -35 57 -219 330 q -185 273 -522 764 Z M 986425 2849 l -704 1571 l 704 0 l 0 -1571 m -73 -347 l 351 0 l 0 1918 l 294 0 l 0 331 l -294 0 l 0 694 l -277 0 l 0 -694 l -930 0 l 0 -384 l 857 -1865 Z" class="C3" /><path d="M 652960 5110 l 455 0 l 0 -2246 l -495 142 l 0 -363 l 493 -142 l 279 0 l 0 2608 l 455 0 l 0 335 l -1187 0 l 0 -335 Z M 655341 3815 q -188 0 -297 183 q -110 183 -110 503 q 0 317 110 502 q 110 184 297 184 q 188 0 297 -184 q 110 -184 110 -502 q 0 -319 -110 -503 q -110 -183 -297 -183 m 553 -1248 l 0 363 q -105 -71 -212 -108 q -107 -37 -212 -37 q -276 0 -422 266 q -146 266 -166 804 q 81 -172 204 -263 q 123 -92 271 -92 q 311 0 491 269 q 180 269 180 732 q 0 453 -188 728 q -188 274 -500 274 q -357 0 -547 -391 q -189 -391 -189 -1135 q 0 -698 232 -1113 q 232 -415 622 -415 q 105 0 212 30 q 107 30 223 89 Z" class="C3" /><path d="M 10790 80154 l 0 1078 l 447 0 q 225 0 333 -133 q 108 -133 108 -407 q 0 -276 -108 -407 q -108 -131 -333 -131 l -447 0 m 0 -1211 l 0 887 l 413 0 q 204 0 304 -109 q 100 -109 100 -334 q 0 -223 -100 -333 q -100 -110 -304 -110 l -413 0 m -279 -327 l 712 0 q 319 0 491 189 q 173 189 173 538 q 0 270 -88 430 q -88 160 -259 199 q 206 63 320 263 q 114 200 114 500 q 0 394 -188 609 q -188 215 -534 215 l -740 0 l 0 -2944 Z" class="C3" /><path d="M 12173 120895 l 0 420 q -141 -187 -300 -280 q -159 -93 -339 -93 q -353 0 -541 309 q -188 309 -188 892 q 0 582 188 890 q 188 309 541 309 q 179 0 339 -93 q 159 -93 300 -280 l 0 416 q -146 142 -310 213 q -164 71 -346 71 q -468 0 -737 -409 q -269 -409 -269 -1117 q 0 -710 269 -1119 q 269 -409 737 -409 q 185 0 348 70 q 164 70 307 210 Z" class="C3" /><path d="M 10809 163048 l 0 2289 l 337 0 q 426 0 625 -276 q 198 -276 198 -871 q 0 -591 -198 -867 q -198 -275 -625 -275 l -337 0 m -279 -327 l 573 0 q 599 0 879 356 q 280 356 280 1113 q 0 761 -282 1118 q -282 357 -878 357 l -573 0 l 0 -2944 Z" class="C3" /><path d="M 10585 204773 l 1303 0 l 0 335 l -1024 0 l 0 871 l 981 0 l 0 335 l -981 0 l 0 1067 l 1049 0 l 0 335 l -1328 0 l 0 -2944 Z" class="C3" /><path d="M 10633 246825 l 1184 0 l 0 335 l -905 0 l 0 868 l 817 0 l 0 335 l -817 0 l 0 1406 l -279 0 l 0 -2944 Z" class="C3" /><path d="M 12020 291400 l 0 -791 l -455 0 l 0 -327 l 731 0 l 0 1264 q -161 164 -356 247 q -195 84 -415 84 q -483 0 -756 -403 q -273 -403 -273 -1123 q 0 -722 273 -1125 q 273 -403 756 -403 q 202 0 383 71 q 181 71 335 209 l 0 424 q -155 -187 -328 -282 q -174 -95 -366 -95 q -378 0 -568 302 q -190 302 -190 899 q 0 595 190 897 q 190 302 568 302 q 148 0 264 -36 q 116 -36 208 -113 Z" class="C3" /><path d="M 10556 330929 l 279 0 l 0 1207 l 1013 0 l 0 -1207 l 279 0 l 0 2944 l -279 0 l 0 -1402 l -1013 0 l 0 1402 l -279 0 l 0 -2944 Z" class="C3" /><path d="M 10807 372981 l 279 0 l 0 2739 q 0 532 -141 773 q -141 241 -455 241 l -106 0 l 0 -335 l 87 0 q 185 0 261 -148 q 76 -148 76 -530 l 0 -2739 Z" class="C3" /><path d="M 10554 415033 l 279 0 l 0 1244 l 925 -1244 l 359 0 l -1023 1372 l 1096 1571 l -367 0 l -990 -1418 l 0 1418 l -279 0 l 0 -2944 Z" class="C3" /><path d="M 10575 457085 l 279 0 l 0 2608 l 1003 0 l 0 335 l -1282 0 l 0 -2944 Z" class="C3" /><path d="M 10586 499138 l 415 0 l 526 2003 l 529 -2003 l 415 0 l 0 2944 l -272 0 l 0 -2585 l -531 2019 l -280 0 l -531 -2019 l 0 2585 l -271 0 l 0 -2944 Z" class="C3" /><path d="M 10661 541190 l 375 0 l 914 2463 l 0 -2463 l 271 0 l 0 2944 l -375 0 l -914 -2463 l 0 2463 l -271 0 l 0 -2944 Z" class="C3" /><path d="M 11011 583569 l 0 1106 l 351 0 q 195 0 301 -144 q 106 -144 106 -410 q 0 -264 -106 -408 q -106 -144 -301 -144 l -351 0 m -279 -327 l 629 0 q 346 0 524 224 q 177 224 177 656 q 0 436 -177 659 q -177 223 -524 223 l -351 0 l 0 1183 l -279 0 l 0 -2944 Z" class="C3" /><path d="M 11202 28336 l -378 1465 l 758 0 l -380 -1465 m -157 -392 l 316 0 l 785 2944 l -290 0 l -188 -755 l -929 0 l -188 755 l -294 0 l 787 -2944 Z" class="C3" /><path d="M 995475 675967 l 1743 0 l 0 335 l -731 0 l 0 2608 l -280 0 l 0 -2608 l -731 0 l 0 -335 Z" class="C3" /><path d="M 996895 626857 q 90 43 175 185 q 85 142 170 390 l 283 804 l -299 0 l -264 -755 q -102 -296 -198 -392 q -96 -97 -262 -97 l -304 0 l 0 1244 l -279 0 l 0 -2944 l 629 0 q 353 0 527 211 q 174 211 174 637 q 0 278 -90 461 q -90 183 -263 254 m -698 -1236 l 0 1045 l 351 0 q 202 0 304 -133 q 103 -133 103 -391 q 0 -258 -103 -389 q -103 -131 -304 -131 l -351 0 Z" class="C3" /><path d="M 996293 583569 l 0 1106 l 351 0 q 195 0 301 -144 q 106 -144 106 -410 q 0 -264 -106 -408 q -106 -144 -301 -144 l -351 0 m -279 -327 l 629 0 q 346 0 524 224 q 177 224 177 656 q 0 436 -177 659 q -177 223 -524 223 l -351 0 l 0 1183 l -279 0 l 0 -2944 Z" class="C3" /><path d="M 995943 541190 l 375 0 l 914 2463 l 0 -2463 l 271 0 l 0 2944 l -375 0 l -914 -2463 l 0 2463 l -271 0 l 0 -2944 Z" class="C3" /><path d="M 995868 499138 l 415 0 l 526 2003 l 529 -2003 l 415 0 l 0 2944 l -272 0 l 0 -2585 l -531 2019 l -280 0 l -531 -2019 l 0 2585 l -271 0 l 0 -2944 Z" class="C3" /><path d="M 995857 457085 l 279 0 l 0 2608 l 1003 0 l 0 335 l -1282 0 l 0 -2944 Z" class="C3" /><path d="M 995835 415033 l 279 0 l 0 1244 l 925 -1244 l 359 0 l -1023 1372 l 1096 1571 l -367 0 l -990 -1418 l 0 1418 l -279 0 l 0 -2944 Z" class="C3" /><path d="M 996089 372981 l 279 0 l 0 2739 q 0 532 -141 773 q -141 241 -455 241 l -106 0 l 0 -335 l 87 0 q 185 0 261 -148 q 76 -148 76 -530 l 0 -2739 Z" class="C3" /><path d="M 995837 330929 l 279 0 l 0 1207 l 1013 0 l 0 -1207 l 279 0 l 0 2944 l -279 0 l 0 -1402 l -1013 0 l 0 1402 l -279 0 l 0 -2944 Z" class="C3" /><path d="M 997302 291400 l 0 -791 l -455 0 l 0 -327 l 731 0 l 0 1264 q -161 164 -356 247 q -195 84 -415 84 q -483 0 -756 -403 q -273 -403 -273 -1123 q 0 -722 273 -1125 q 273 -403 756 -403 q 202 0 383 71 q 181 71 335 209 l 0 424 q -155 -187 -328 -282 q -174 -95 -366 -95 q -378 0 -568 302 q -190 302 -190 899 q 0 595 190 897 q 190 302 568 302 q 148 0 264 -36 q 116 -36 208 -113 Z" class="C3" /><path d="M 995914 246825 l 1184 0 l 0 335 l -905 0 l 0 868 l 817 0 l 0 335 l -817 0 l 0 1406 l -279 0 l 0 -2944 Z" class="C3" /><path d="M 995867 204773 l 1303 0 l 0 335 l -1024 0 l 0 871 l 981 0 l 0 335 l -981 0 l 0 1067 l 1049 0 l 0 335 l -1328 0 l 0 -2944 Z" class="C3" /><path d="M 996091 163048 l 0 2289 l 337 0 q 426 0 625 -276 q 198 -276 198 -871 q 0 -591 -198 -867 q -198 -275 -625 -275 l -337 0 m -279 -327 l 573 0 q 599 0 879 356 q 280 356 280 1113 q 0 761 -282 1118 q -282 357 -878 357 l -573 0 l 0 -2944 Z" class="C3" /><path d="M 997454 120895 l 0 420 q -141 -187 -300 -280 q -159 -93 -339 -93 q -353 0 -541 309 q -188 309 -188 892 q 0 582 188 890 q 188 309 541 309 q 179 0 339 -93 q 159 -93 300 -280 l 0 416 q -146 142 -310 213 q -164 71 -346 71 q -468 0 -737 -409 q -269 -409 -269 -1117 q 0 -710 269 -1119 q 269 -409 737 -409 q 185 0 348 70 q 164 70 307 210 Z" class="C3" /><path d="M 996071 80154 l 0 1078 l 447 0 q 225 0 333 -133 q 108 -133 108 -407 q 0 -276 -108 -407 q -108 -131 -333 -131 l -447 0 m 0 -1211 l 0 887 l 413 0 q 204 0 304 -109 q 100 -109 100 -334 q 0 -223 -100 -333 q -100 -110 -304 -110 l -413 0 m -279 -327 l 712 0 q 319 0 491 189 q 173 189 173 538 q 0 270 -88 430 q -88 160 -259 199 q 206 63 320 263 q 114 200 114 500 q 0 394 -188 609 q -188 215 -534 215 l -740 0 l 0 -2944 Z" class="C3" /><path d="M 996484 28336 l -378 1465 l 758 0 l -380 -1465 m -157 -392 l 316 0 l 785 2944 l -290 0 l -188 -755 l -929 0 l -188 755 l -294 0 l 787 -2944 Z" class="C3" /></g></svg>